<svg height="1118px" width="720px" xmlns="http://www.w3.org/2000/svg">
<rect height="1118px" fill="#555" width="720px"></rect>
<text fill="#7f7" font-family="Consolas, Menlo, monospace" font-size="12" xml:space="preserve">
<tspan x="10" y="26">shCiInit - mkdir - /home/runner/work/node-utility2/node-utility2/.tmp/build</tspan>
<tspan x="10" y="42"># shCiInit env</tspan>
<tspan x="10" y="58"># export PWD='/home/runner/work/node-utility2/node-utility2'</tspan>
<tspan x="10" y="74">export npm_package_description='this zero-dependency package will provide high-level functions t\</tspan><tspan x="10" y="90">o to build, test, and deploy webapps'</tspan>
<tspan x="10" y="106">export npm_package_homepage='https://github.com/kaizhu256/node-utility2'</tspan>
<tspan x="10" y="122">export npm_package_main='lib.utility2.js'</tspan>
<tspan x="10" y="138">export npm_package_name='utility2'</tspan>
<tspan x="10" y="154">export npm_package_nameLib='utility2'</tspan>
<tspan x="10" y="170">export npm_package_nameOriginal='utility2'</tspan>
<tspan x="10" y="186">export npm_package_private=''</tspan>
<tspan x="10" y="202">export npm_package_version='2020.12.3'</tspan>
<tspan x="10" y="218">export GITHUB_FULLNAME='kaizhu256/node-utility2'</tspan>
<tspan x="10" y="234">export GITHUB_OWNER='kaizhu256'</tspan>
<tspan x="10" y="250">export GITHUB_REPO='node-utility2'</tspan>
<tspan x="10" y="266">export UTILITY2_BIN='/home/runner/work/node-utility2/node-utility2/lib.utility2.sh'</tspan>
<tspan x="10" y="282">export UTILITY2_DIR_BIN='/home/runner/work/node-utility2/node-utility2'</tspan>
<tspan x="10" y="298">export UTILITY2_DIR_BUILD='/home/runner/work/node-utility2/node-utility2/.tmp/build'</tspan>
<tspan x="10" y="314">export PATH="$PATH:/home/runner/work/node-utility2/node-utility2:/home/runner/work/node-utility2\</tspan><tspan x="10" y="330">/.bin"</tspan>
<tspan x="10" y="346">export CI_BRANCH='alpha'</tspan>
<tspan x="10" y="362">export CI_COMMIT_ID='a9a523857585df0d5a70483709ede32a06d2cd30'</tspan>
<tspan x="10" y="378">export CI_COMMIT_MESSAGE='shCiPrint'</tspan>
<tspan x="10" y="394">export NODE_OPTIONS='--unhandled-rejections=throw'</tspan>
<tspan x="10" y="410">shCiInit - wrote - /home/runner/work/node-utility2/node-utility2/.tmp/README.example.sh</tspan>
<tspan x="10" y="426">shCiInit - wrote - /home/runner/work/node-utility2/node-utility2/.tmp/README.Dockerfile.base</tspan>
<tspan x="10" y="442">shCiInit - wrote - /home/runner/work/node-utility2/node-utility2/.tmp/README.Dockerfile.latest</tspan>
<tspan x="10" y="458">shCiInit - wrote - /home/runner/work/node-utility2/node-utility2/.tmp/README.Dockerfile.tmp</tspan>
<tspan x="10" y="474">shCiInit - wrote - /home/runner/work/node-utility2/node-utility2/.tmp/README.build_ci.sh</tspan>
<tspan x="10" y="490">shCiInit - wrote - /home/runner/work/node-utility2/node-utility2/.tmp/README.example.js</tspan>
<tspan x="10" y="506"></tspan>
<tspan x="10" y="522">npmPackageCliHelp - merged test-report from file /home/runner/work/node-utility2/node-utility2/.\</tspan><tspan x="10" y="538">tmp/build/test-report.json</tspan>
<tspan x="10" y="554">utility2 (2020.12.3)</tspan>
<tspan x="10" y="570"></tspan>
<tspan x="10" y="586">usage:</tspan>
<tspan x="10" y="602">  lib.utility2.js  &lt;arg1&gt;  &lt;arg2&gt;  ...</tspan>
<tspan x="10" y="618"></tspan>
<tspan x="10" y="634">example:</tspan>
<tspan x="10" y="650">  lib.utility2.js  --eval  'console.log("hello world")'</tspan>
<tspan x="10" y="666"></tspan>
<tspan x="10" y="682"># CMD --eval</tspan>
<tspan x="10" y="698"># will eval &lt;code&gt;</tspan>
<tspan x="10" y="714">  lib.utility2.js  --eval|-e  &lt;code&gt;</tspan>
<tspan x="10" y="730"></tspan>
<tspan x="10" y="746"># CMD --help</tspan>
<tspan x="10" y="762"># will print help</tspan>
<tspan x="10" y="778">  lib.utility2.js  --help|-h  </tspan>
<tspan x="10" y="794"></tspan>
<tspan x="10" y="810"># CMD --interactive</tspan>
<tspan x="10" y="826"># will start interactive-mode</tspan>
<tspan x="10" y="842">  lib.utility2.js  --interactive|-i  </tspan>
<tspan x="10" y="858"></tspan>
<tspan x="10" y="874"># CMD --version</tspan>
<tspan x="10" y="890"># will print version</tspan>
<tspan x="10" y="906">  lib.utility2.js  --version|-v  </tspan>
<tspan x="10" y="922"></tspan>
<tspan x="10" y="938"># CMD utility2.browserTest</tspan>
<tspan x="10" y="954"># will browser-test in parallel, comma-separated &lt;urlList&gt; with given &lt;mode&gt;</tspan>
<tspan x="10" y="970">  lib.utility2.js  utility2.browserTest  &lt;urlList&gt;  &lt;mode&gt;</tspan>
<tspan x="10" y="986"></tspan>
<tspan x="10" y="1002"># CMD utility2.start</tspan>
<tspan x="10" y="1018"># will start utility2 http-server on given &lt;port&gt; (default 8081)</tspan>
<tspan x="10" y="1034">  lib.utility2.js  utility2.start  &lt;port&gt;</tspan>
<tspan x="10" y="1050"></tspan>
<tspan x="10" y="1066"># CMD utility2.testReportCreate</tspan>
<tspan x="10" y="1082"># will create test-report</tspan>
<tspan x="10" y="1098">  lib.utility2.js  utility2.testReportCreate</tspan>
</text>
</svg>
