<svg height="3166" width="720" xmlns="http://www.w3.org/2000/svg">
<rect height="3166" fill="#555" width="720"></rect>
<text fill="#7f7" font-family="Courier New" font-size="12" xml:space="preserve">
<tspan x="10" y="26">2020-05-30 18:09:48 -0500</tspan>

<tspan x="10" y="42">inline.consumeBlanks</tspan>

<tspan x="10" y="58"></tspan>

<tspan x="10" y="74">2020-05-30 18:05:24 -0500</tspan>

<tspan x="10" y="90">math.min.col</tspan>

<tspan x="10" y="106"></tspan>

<tspan x="10" y="122">2020-05-30 17:37:50 -0500</tspan>

<tspan x="10" y="138">lineno</tspan>

<tspan x="10" y="154"></tspan>

<tspan x="10" y="170">2020-05-30 17:37:13 -0500</tspan>

<tspan x="10" y="186">lineno</tspan>

<tspan x="10" y="202"></tspan>

<tspan x="10" y="218">2020-05-30 17:33:41 -0500</tspan>

<tspan x="10" y="234">render.env</tspan>

<tspan x="10" y="250"></tspan>

<tspan x="10" y="266">2020-05-30 17:20:53 -0500</tspan>

<tspan x="10" y="282">COMMIT_LIMIT.100</tspan>

<tspan x="10" y="298"></tspan>

<tspan x="10" y="314">2020-05-30 17:06:50 -0500</tspan>

<tspan x="10" y="330">htmlData</tspan>

<tspan x="10" y="346"></tspan>

<tspan x="10" y="362">2020-05-30 17:04:15 -0500</tspan>

<tspan x="10" y="378">show_percent_bar</tspan>

<tspan x="10" y="394"></tspan>

<tspan x="10" y="410">2020-05-30 16:57:46 -0500</tspan>

<tspan x="10" y="426">cull.consumeBlanks</tspan>

<tspan x="10" y="442"></tspan>

<tspan x="10" y="458">2020-05-30 16:57:06 -0500</tspan>

<tspan x="10" y="474">cull.consumeBlanks</tspan>

<tspan x="10" y="490"></tspan>

<tspan x="10" y="506">2020-05-30 16:55:42 -0500</tspan>

<tspan x="10" y="522">cull.lineCreate.line</tspan>

<tspan x="10" y="538"></tspan>

<tspan x="10" y="554">2020-05-30 16:54:05 -0500</tspan>

<tspan x="10" y="570">local.templateCoverageReport</tspan>

<tspan x="10" y="586"></tspan>

<tspan x="10" y="602">2020-05-30 16:52:01 -0500</tspan>

<tspan x="10" y="618">domStyleValidate</tspan>

<tspan x="10" y="634"></tspan>

<tspan x="10" y="650">2020-05-30 16:49:37 -0500</tspan>

<tspan x="10" y="666">local.templateCoverageReport</tspan>

<tspan x="10" y="682"></tspan>

<tspan x="10" y="698">2020-05-30 16:48:21 -0500</tspan>

<tspan x="10" y="714">domStyleValidate</tspan>

<tspan x="10" y="730"></tspan>

<tspan x="10" y="746">2020-05-30 16:42:59 -0500</tspan>

<tspan x="10" y="762">local.domStyleValidate</tspan>

<tspan x="10" y="778"></tspan>

<tspan x="10" y="794">2020-05-30 16:39:39 -0500</tspan>

<tspan x="10" y="810">last.good.build</tspan>

<tspan x="10" y="826"></tspan>

<tspan x="10" y="842">2020-05-30 16:38:48 -0500</tspan>

<tspan x="10" y="858">slushy.consumeBlanks</tspan>

<tspan x="10" y="874"></tspan>

<tspan x="10" y="890">2020-05-30 16:33:19 -0500</tspan>

<tspan x="10" y="906">lineList</tspan>

<tspan x="10" y="922"></tspan>

<tspan x="10" y="938">2020-05-30 16:28:04 -0500</tspan>

<tspan x="10" y="954">domStyleValidate</tspan>

<tspan x="10" y="970"></tspan>

<tspan x="10" y="986">2020-05-30 16:25:22 -0500</tspan>

<tspan x="10" y="1002">cull.lineno</tspan>

<tspan x="10" y="1018"></tspan>

<tspan x="10" y="1034">2020-05-30 16:13:14 -0500</tspan>

<tspan x="10" y="1050">domStyleValidate</tspan>

<tspan x="10" y="1066"></tspan>

<tspan x="10" y="1082">2020-05-30 16:03:04 -0500</tspan>

<tspan x="10" y="1098">pre.whitespace</tspan>

<tspan x="10" y="1114"></tspan>

<tspan x="10" y="1130">2020-05-30 15:16:44 -0500</tspan>

<tspan x="10" y="1146">templateRender.show_code</tspan>

<tspan x="10" y="1162"></tspan>

<tspan x="10" y="1178">2020-05-30 14:50:06 -0500</tspan>

<tspan x="10" y="1194">templateRender.show_code</tspan>

<tspan x="10" y="1210"></tspan>

<tspan x="10" y="1226">2020-05-30 14:45:52 -0500</tspan>

<tspan x="10" y="1242">templateRender.show_code</tspan>

<tspan x="10" y="1258"></tspan>

<tspan x="10" y="1274">2020-05-30 14:32:17 -0500</tspan>

<tspan x="10" y="1290">templateRender.show_code</tspan>

<tspan x="10" y="1306"></tspan>

<tspan x="10" y="1322">2020-05-30 14:27:09 -0500</tspan>

<tspan x="10" y="1338">render</tspan>

<tspan x="10" y="1354"></tspan>

<tspan x="10" y="1370">2020-05-30 14:25:17 -0500</tspan>

<tspan x="10" y="1386">template.isFile</tspan>

<tspan x="10" y="1402"></tspan>

<tspan x="10" y="1418">2020-05-29 18:25:18 -0500</tspan>

<tspan x="10" y="1434">inline.templateHead</tspan>

<tspan x="10" y="1450"></tspan>

<tspan x="10" y="1466">2020-05-29 23:21:28 +0000</tspan>

<tspan x="10" y="1482">last.good.build</tspan>

<tspan x="10" y="1498"></tspan>

<tspan x="10" y="1514">2020-05-29 18:17:52 -0500</tspan>

<tspan x="10" y="1530">table</tspan>

<tspan x="10" y="1546"></tspan>

<tspan x="10" y="1562">2020-05-29 18:09:04 -0500</tspan>

<tspan x="10" y="1578">each.node.children</tspan>

<tspan x="10" y="1594"></tspan>

<tspan x="10" y="1610">2020-05-29 18:02:13 -0500</tspan>

<tspan x="10" y="1626">render.isFile</tspan>

<tspan x="10" y="1642"></tspan>

<tspan x="10" y="1658">2020-05-29 17:55:34 -0500</tspan>

<tspan x="10" y="1674">render.env</tspan>

<tspan x="10" y="1690"></tspan>

<tspan x="10" y="1706">2020-05-29 17:34:34 -0500</tspan>

<tspan x="10" y="1722">local.templateRender</tspan>

<tspan x="10" y="1738"></tspan>

<tspan x="10" y="1754">2020-05-29 17:32:19 -0500</tspan>

<tspan x="10" y="1770">local.templateRender</tspan>

<tspan x="10" y="1786"></tspan>

<tspan x="10" y="1802">2020-05-29 17:06:33 -0500</tspan>

<tspan x="10" y="1818">node.isFile</tspan>

<tspan x="10" y="1834"></tspan>

<tspan x="10" y="1850">2020-05-29 21:55:08 +0000</tspan>

<tspan x="10" y="1866">tempateRender.if</tspan>

<tspan x="10" y="1882"></tspan>

<tspan x="10" y="1898">2020-05-29 21:36:45 +0000</tspan>

<tspan x="10" y="1914">revert</tspan>

<tspan x="10" y="1930"></tspan>

<tspan x="10" y="1946">2020-05-29 21:36:19 +0000</tspan>

<tspan x="10" y="1962">slushy</tspan>

<tspan x="10" y="1978"></tspan>

<tspan x="10" y="1994">2020-05-29 17:40:22 +0000</tspan>

<tspan x="10" y="2010">cull.templateRender</tspan>

<tspan x="10" y="2026"></tspan>

<tspan x="10" y="2042">2020-05-29 17:11:34 +0000</tspan>

<tspan x="10" y="2058">template</tspan>

<tspan x="10" y="2074"></tspan>

<tspan x="10" y="2090">2020-05-25 23:35:44 -0500</tspan>

<tspan x="10" y="2106">[npm publish] - npm publish 2020.5.25</tspan>

<tspan x="10" y="2122">- istanbul - rename __coverageCodeDict__ to __coverageInclude__</tspan>

<tspan x="10" y="2138">- istanbul - rewrite function coverageReportCreate</tspan>

<tspan x="10" y="2154"></tspan>

<tspan x="10" y="2170">2020-05-25 12:08:55 -0500</tspan>

<tspan x="10" y="2186">[npm publish] - npm publish 2020.5.20</tspan>

<tspan x="10" y="2202">- jslint - add debug-option to pring stack-trace of first warning</tspan>

<tspan x="10" y="2218">- update shell-functions shCryptoTravisDecrypt, shCryptoTravisEncrypt</tspan>

<tspan x="10" y="2234">- jslint - prefer undefined over null in file lib.jslint.js</tspan>

<tspan x="10" y="2250">- jslint - validate sort nested switch-statements</tspan>

<tspan x="10" y="2266">- update to jslint v2020.03.28</tspan>

<tspan x="10" y="2282">- update shell-function shRawLibFetch with check validating all replacement-expressions were use\</tspan>
<tspan x="10" y="2298">d</tspan>

<tspan x="10" y="2314"></tspan>

<tspan x="10" y="2330">2020-03-17 02:03:28 -0500</tspan>

<tspan x="10" y="2346">[npm publish] - npm publish 2020.3.17</tspan>

<tspan x="10" y="2362">- add modal-support to function window.domOnEventAjaxProgressUpdate</tspan>

<tspan x="10" y="2378">- update shell-function shRawLibFetch to accept footer after file-none</tspan>

<tspan x="10" y="2394">- un-rename errDefault to errorDefault</tspan>

<tspan x="10" y="2410">- remove function errorMessagePrepend</tspan>

<tspan x="10" y="2426">- rename message to msg</tspan>

<tspan x="10" y="2442">- rename text to str</tspan>

<tspan x="10" y="2458">- update shell-function shRawLibFetch to apply diff</tspan>

<tspan x="10" y="2474">- add function promisify</tspan>

<tspan x="10" y="2490">- update function httpFetch with abort-handling</tspan>

<tspan x="10" y="2506">- update function shRawLibFetch to inline-fetch resources to raw.xxx.js</tspan>

<tspan x="10" y="2522">- add function httpFetch using fetch-api and promises</tspan>

<tspan x="10" y="2538">- remove polyfills Array.p.flat, Array.p.flatMap, TextDecoder, TextEncoder</tspan>

<tspan x="10" y="2554">- add workaround for nodejs v12 bug - https://github.com/libuv/libuv/issues/2587</tspan>

<tspan x="10" y="2570">- add function stringLineCount</tspan>

<tspan x="10" y="2586">- simplify globalThis polyfill</tspan>

<tspan x="10" y="2602"></tspan>

<tspan x="10" y="2618">2020-02-17 11:33:56 -0600</tspan>

<tspan x="10" y="2634">[npm publish] - npm publish 2020.2.17</tspan>

<tspan x="10" y="2650">- remove npm-package elasticsearch-lite in docker-image</tspan>

<tspan x="10" y="2666">- upgrade docker-image to node v12</tspan>

<tspan x="10" y="2682">- rename var option2 to opt2</tspan>

<tspan x="10" y="2698">- add wasm mimetype</tspan>

<tspan x="10" y="2714">- update jslint to v2020.1.17</tspan>

<tspan x="10" y="2730">- update csslint to v2018.2.25</tspan>

<tspan x="10" y="2746">- add runme-feature in test.js</tspan>

<tspan x="10" y="2762">- rearrange todo &lt;-&gt; changelog</tspan>

<tspan x="10" y="2778">- update function middlewareFileServer to serve files in win32 env</tspan>

<tspan x="10" y="2794"></tspan>

<tspan x="10" y="2810">2020-01-20 11:35:07 -0600</tspan>

<tspan x="10" y="2826">[npm publish] - npm publish 2019.1.20</tspan>

<tspan x="10" y="2842">- rename counter to cnt</tspan>

<tspan x="10" y="2858">- test String.p.indexOf using only 0</tspan>

<tspan x="10" y="2874">- replace uglifyjs-lite with terser-lite (v2.8.29)</tspan>

<tspan x="10" y="2890">- remove sjcl-dependency in favor of subtle-crypto</tspan>

<tspan x="10" y="2906"></tspan>

<tspan x="10" y="2922">2019-11-25 07:15:30 +0000</tspan>

<tspan x="10" y="2938">[npm publish] - npm publish 2019.11.24</tspan>

<tspan x="10" y="2954">- jslint - autofix json with jslintStringifyOrdered</tspan>

<tspan x="10" y="2970">- jslint - revert to using jslint (instead of JSON.parse) to lint json</tspan>

<tspan x="10" y="2986">- add function base64urlFromBuffer</tspan>

<tspan x="10" y="3002">- update function base64ToBuffer with base64url support</tspan>

<tspan x="10" y="3018">- update function shRawLibFetch for https://github.com/panva/jose</tspan>

<tspan x="10" y="3034"></tspan>

<tspan x="10" y="3050">2019-10-16 19:54:33 -0500</tspan>

<tspan x="10" y="3066">- update feature flag $npm_package_private</tspan>

<tspan x="10" y="3082">- add file .CRYPTO_AES_SH_ENCRYPTED_kaizhu256</tspan>

<tspan x="10" y="3098">- rename shell-function shRawJsXxx to shRawLibXxx</tspan>

<tspan x="10" y="3114">- jslint - add bigint support</tspan>

<tspan x="10" y="3130">- remove asset assets.utility2.base.html</tspan>

<tspan x="10" y="3146">- fix build-ci for bootstrap-lite, jslint-lite</tspan>

</text>
</svg>
