<svg height="1406" width="720" xmlns="http://www.w3.org/2000/svg">
<rect height="1406" fill="#555" width="720"></rect>
<text fill="#7f7" font-family="Courier New" font-size="12" xml:space="preserve">
<tspan x="10" y="26"># shBuildInit env</tspan>

<tspan x="10" y="42">export npm_package_description='this zero-dependency package will provide high-level functions t\</tspan>
<tspan x="10" y="58">o to build, test, and deploy webapps'</tspan>

<tspan x="10" y="74">export npm_package_homepage='https://github.com/kaizhu256/node-utility2'</tspan>

<tspan x="10" y="90">export npm_package_main='lib.utility2.js'</tspan>

<tspan x="10" y="106">export npm_package_name='utility2'</tspan>

<tspan x="10" y="122">export npm_package_nameLib='utility2'</tspan>

<tspan x="10" y="138">export npm_package_nameOriginal='utility2'</tspan>

<tspan x="10" y="154">export npm_package_private=''</tspan>

<tspan x="10" y="170">export npm_package_version='2020.11.12'</tspan>

<tspan x="10" y="186">shBuildInit - wrote /home/travis/build/kaizhu256/node-utility2/.tmp/README.Dockerfile.base</tspan>

<tspan x="10" y="202">shBuildInit - wrote /home/travis/build/kaizhu256/node-utility2/.tmp/README.example.sh</tspan>

<tspan x="10" y="218">shBuildInit - wrote /home/travis/build/kaizhu256/node-utility2/.tmp/README.example.js</tspan>

<tspan x="10" y="234">shBuildInit - wrote /home/travis/build/kaizhu256/node-utility2/.tmp/README.Dockerfile.latest</tspan>

<tspan x="10" y="250">shBuildInit - wrote /home/travis/build/kaizhu256/node-utility2/.tmp/README.build_ci.sh</tspan>

<tspan x="10" y="266">shBuildInit - wrote /home/travis/build/kaizhu256/node-utility2/.tmp/README.Dockerfile.tmp</tspan>

<tspan x="10" y="282">utility2 (2020.11.12)</tspan>

<tspan x="10" y="298"></tspan>

<tspan x="10" y="314">usage:</tspan>

<tspan x="10" y="330">  lib.utility2.js  &lt;arg1&gt;  &lt;arg2&gt;  ...</tspan>

<tspan x="10" y="346"></tspan>

<tspan x="10" y="362">example:</tspan>

<tspan x="10" y="378">  lib.utility2.js  --eval  'console.log("hello world")'</tspan>

<tspan x="10" y="394"></tspan>

<tspan x="10" y="410"># COMMAND --eval</tspan>

<tspan x="10" y="426"># will eval &lt;code&gt;</tspan>

<tspan x="10" y="442">  lib.utility2.js  --eval|-e  &lt;code&gt;</tspan>

<tspan x="10" y="458"></tspan>

<tspan x="10" y="474"># COMMAND --help</tspan>

<tspan x="10" y="490"># will print help</tspan>

<tspan x="10" y="506">  lib.utility2.js  --help|-h|help  </tspan>

<tspan x="10" y="522"></tspan>

<tspan x="10" y="538"># COMMAND --interactive</tspan>

<tspan x="10" y="554"># will start interactive-mode</tspan>

<tspan x="10" y="570">  lib.utility2.js  --interactive|-i  </tspan>

<tspan x="10" y="586"></tspan>

<tspan x="10" y="602"># COMMAND --version</tspan>

<tspan x="10" y="618"># will print version</tspan>

<tspan x="10" y="634">  lib.utility2.js  --version|-v  </tspan>

<tspan x="10" y="650"></tspan>

<tspan x="10" y="666"># COMMAND utility2.browserTest</tspan>

<tspan x="10" y="682"># will browser-test in parallel, comma-separated &lt;urlList&gt; with given &lt;mode&gt;</tspan>

<tspan x="10" y="698">  lib.utility2.js  utility2.browserTest  &lt;urlList&gt;  &lt;mode&gt;</tspan>

<tspan x="10" y="714"></tspan>

<tspan x="10" y="730"># COMMAND utility2.start</tspan>

<tspan x="10" y="746"># will start utility2 http-server on given &lt;port&gt; (default 8081)</tspan>

<tspan x="10" y="762">  lib.utility2.js  utility2.start  &lt;port&gt;</tspan>

<tspan x="10" y="778"></tspan>

<tspan x="10" y="794"># COMMAND utility2.testReportCreate</tspan>

<tspan x="10" y="810"># will create test-report</tspan>

<tspan x="10" y="826">  lib.utility2.js  utility2.testReportCreate  </tspan>

<tspan x="10" y="842">utility2 (2020.11.12)</tspan>

<tspan x="10" y="858"></tspan>

<tspan x="10" y="874">usage:</tspan>

<tspan x="10" y="890">  lib.utility2.js  &lt;arg1&gt;  &lt;arg2&gt;  ...</tspan>

<tspan x="10" y="906"></tspan>

<tspan x="10" y="922">example:</tspan>

<tspan x="10" y="938">  lib.utility2.js  --eval  'console.log("hello world")'</tspan>

<tspan x="10" y="954"></tspan>

<tspan x="10" y="970"># COMMAND --eval</tspan>

<tspan x="10" y="986"># will eval &lt;code&gt;</tspan>

<tspan x="10" y="1002">  lib.utility2.js  --eval|-e  &lt;code&gt;</tspan>

<tspan x="10" y="1018"></tspan>

<tspan x="10" y="1034"># COMMAND --help</tspan>

<tspan x="10" y="1050"># will print help</tspan>

<tspan x="10" y="1066">  lib.utility2.js  --help|-h|help  </tspan>

<tspan x="10" y="1082"></tspan>

<tspan x="10" y="1098"># COMMAND --interactive</tspan>

<tspan x="10" y="1114"># will start interactive-mode</tspan>

<tspan x="10" y="1130">  lib.utility2.js  --interactive|-i  </tspan>

<tspan x="10" y="1146"></tspan>

<tspan x="10" y="1162"># COMMAND --version</tspan>

<tspan x="10" y="1178"># will print version</tspan>

<tspan x="10" y="1194">  lib.utility2.js  --version|-v  </tspan>

<tspan x="10" y="1210"></tspan>

<tspan x="10" y="1226"># COMMAND utility2.browserTest</tspan>

<tspan x="10" y="1242"># will browser-test in parallel, comma-separated &lt;urlList&gt; with given &lt;mode&gt;</tspan>

<tspan x="10" y="1258">  lib.utility2.js  utility2.browserTest  &lt;urlList&gt;  &lt;mode&gt;</tspan>

<tspan x="10" y="1274"></tspan>

<tspan x="10" y="1290"># COMMAND utility2.start</tspan>

<tspan x="10" y="1306"># will start utility2 http-server on given &lt;port&gt; (default 8081)</tspan>

<tspan x="10" y="1322">  lib.utility2.js  utility2.start  &lt;port&gt;</tspan>

<tspan x="10" y="1338"></tspan>

<tspan x="10" y="1354"># COMMAND utility2.testReportCreate</tspan>

<tspan x="10" y="1370"># will create test-report</tspan>

<tspan x="10" y="1386">  lib.utility2.js  utility2.testReportCreate</tspan>

</text>
</svg>
