<svg height="4206px" width="720px" xmlns="http://www.w3.org/2000/svg">
<rect height="4206px" fill="#555" width="720px"></rect>
<text fill="#7f7" font-family="Consolas, Menlo, monospace" font-size="12" xml:space="preserve">
<tspan x="10" y="26">2020-12-07 02:02:37 -0600</tspan>
<tspan x="10" y="42">shEnvSanitize</tspan>
<tspan x="10" y="58"></tspan>
<tspan x="10" y="74">2020-12-07 01:56:10 -0600</tspan>
<tspan x="10" y="90">fix.build</tspan>
<tspan x="10" y="106"></tspan>
<tspan x="10" y="122">2020-12-07 01:46:17 -0600</tspan>
<tspan x="10" y="138">fix.build</tspan>
<tspan x="10" y="154"></tspan>
<tspan x="10" y="170">2020-12-07 01:36:38 -0600</tspan>
<tspan x="10" y="186">fix.screenshot</tspan>
<tspan x="10" y="202"></tspan>
<tspan x="10" y="218">2020-12-07 01:35:32 -0600</tspan>
<tspan x="10" y="234">fix.screenshot</tspan>
<tspan x="10" y="250"></tspan>
<tspan x="10" y="266">2020-12-07 01:14:54 -0600</tspan>
<tspan x="10" y="282">cull.env</tspan>
<tspan x="10" y="298"></tspan>
<tspan x="10" y="314">2020-12-07 01:08:11 -0600</tspan>
<tspan x="10" y="330">- rename shBuildXxx to shCiXxx</tspan>
<tspan x="10" y="346"></tspan>
<tspan x="10" y="362">2020-12-07 00:41:47 -0600</tspan>
<tspan x="10" y="378">- rename shBuildXxx to shCiXxx</tspan>
<tspan x="10" y="394"></tspan>
<tspan x="10" y="410">2020-12-07 00:40:03 -0600</tspan>
<tspan x="10" y="426">- rename shBuildXxx to shCiXxx</tspan>
<tspan x="10" y="442"></tspan>
<tspan x="10" y="458">2020-12-07 00:28:31 -0600</tspan>
<tspan x="10" y="474">- rename shBuildXxx to shCiXxx</tspan>
<tspan x="10" y="490"></tspan>
<tspan x="10" y="506">2020-12-06 23:57:30 -0600</tspan>
<tspan x="10" y="522">- rename shBuildXxx to shCiXxx</tspan>
<tspan x="10" y="538"></tspan>
<tspan x="10" y="554">2020-12-06 23:53:51 -0600</tspan>
<tspan x="10" y="570">- rename shBuildXxx to shCiXxx</tspan>
<tspan x="10" y="586"></tspan>
<tspan x="10" y="602">2020-12-06 23:51:32 -0600</tspan>
<tspan x="10" y="618">- rename shBuildXxx to shCiXxx</tspan>
<tspan x="10" y="634"></tspan>
<tspan x="10" y="650">2020-12-06 23:47:31 -0600</tspan>
<tspan x="10" y="666">- rename shBuildXxx to shCiXxx</tspan>
<tspan x="10" y="682"></tspan>
<tspan x="10" y="698">2020-12-06 23:46:56 -0600</tspan>
<tspan x="10" y="714">- rename shBuildXxx to shCiXxx</tspan>
<tspan x="10" y="730"></tspan>
<tspan x="10" y="746">2020-12-06 23:00:44 -0600</tspan>
<tspan x="10" y="762">debug.env</tspan>
<tspan x="10" y="778"></tspan>
<tspan x="10" y="794">2020-12-06 22:59:17 -0600</tspan>
<tspan x="10" y="810">revert</tspan>
<tspan x="10" y="826"></tspan>
<tspan x="10" y="842">2020-12-06 22:54:42 -0600</tspan>
<tspan x="10" y="858">- rename env var \$GITHUB_FULLNAME to \$GITHUB_REPOSITORY</tspan>
<tspan x="10" y="874"></tspan>
<tspan x="10" y="890">2020-12-06 22:54:07 -0600</tspan>
<tspan x="10" y="906">- rename env var \$GITHUB_FULLNAME to \$GITHUB_REPOSITORY</tspan>
<tspan x="10" y="922"></tspan>
<tspan x="10" y="938">2020-12-06 22:48:20 -0600</tspan>
<tspan x="10" y="954">disable.travis</tspan>
<tspan x="10" y="970"></tspan>
<tspan x="10" y="986">2020-12-06 22:46:35 -0600</tspan>
<tspan x="10" y="1002">disable.publish</tspan>
<tspan x="10" y="1018"></tspan>
<tspan x="10" y="1034">2020-12-06 22:43:11 -0600</tspan>
<tspan x="10" y="1050">disable.publish</tspan>
<tspan x="10" y="1066"></tspan>
<tspan x="10" y="1082">2020-12-06 22:42:18 -0600</tspan>
<tspan x="10" y="1098">disable.comment</tspan>
<tspan x="10" y="1114"></tspan>
<tspan x="10" y="1130">2020-12-06 22:41:24 -0600</tspan>
<tspan x="10" y="1146">disable.comment</tspan>
<tspan x="10" y="1162"></tspan>
<tspan x="10" y="1178">2020-12-06 22:38:45 -0600</tspan>
<tspan x="10" y="1194">- pre - migrate from travis to github-actions</tspan>
<tspan x="10" y="1210"></tspan>
<tspan x="10" y="1226">2020-12-06 15:56:41 -0600</tspan>
<tspan x="10" y="1242">- remove shell-functions shNpmDeprecateAlias, shNpmPublishAlias</tspan>
<tspan x="10" y="1258">- merge shell-function shIstanbulCover into shNpmTest</tspan>
<tspan x="10" y="1274">- update shell-function shRunWithScreenshotTxt with fixed \$EXIT_CODE</tspan>
<tspan x="10" y="1290"></tspan>
<tspan x="10" y="1306">2020-12-05 18:46:41 -0600</tspan>
<tspan x="10" y="1322">- cleanup function requireReadme</tspan>
<tspan x="10" y="1338">- replace var isBrowser with isEnvNode and remove unused var isWebWorker</tspan>
<tspan x="10" y="1354">- merge state modeTest into npm_config_mode_test, modeTestCase into npm_config_mode_test_case, t\</tspan><tspan x="10" y="1370">imeoutDefault into npm_config_timeout</tspan>
<tspan x="10" y="1386"></tspan>
<tspan x="10" y="1402">2020-12-05 05:32:27 -0600</tspan>
<tspan x="10" y="1418">- add functions documentQuerySelectorAll</tspan>
<tspan x="10" y="1434">- remove functions middlewareXxx, onParallelXxx, streamCleanup</tspan>
<tspan x="10" y="1450"></tspan>
<tspan x="10" y="1466">2020-12-03 14:48:23 -0600</tspan>
<tspan x="10" y="1482">- migrate from .then() to async/await</tspan>
<tspan x="10" y="1498">- add file .windows_terminals_settings.json</tspan>
<tspan x="10" y="1514"></tspan>
<tspan x="10" y="1530">2020-12-02 19:55:42 -0600</tspan>
<tspan x="10" y="1546">- remove functions streamCleanup</tspan>
<tspan x="10" y="1562">- remove whitespace in shell-functions</tspan>
<tspan x="10" y="1578"></tspan>
<tspan x="10" y="1594">2020-12-02 18:07:50 -0600</tspan>
<tspan x="10" y="1610">[npm publish] #### changelog 2020.12.1</tspan>
<tspan x="10" y="1626">- add persistent repl-history between restart</tspan>
<tspan x="10" y="1642">- rename var command to cmd</tspan>
<tspan x="10" y="1658">- replace functions utility2_onReadyBefore and utility2_onReadyAfter with onReadyIncrement and o\</tspan><tspan x="10" y="1674">nReadyDecrement</tspan>
<tspan x="10" y="1690">- remove jslint-ignore statements from file lib.utility2.js</tspan>
<tspan x="10" y="1706">- move binary-operators from bol to eol - ,$s/\n\(  *\)\(+\|-\|&amp;&amp;\|||\|.==\||\|&amp;\) / \2\r\1/gc -\</tspan><tspan x="10" y="1722"> ^  *[^ *"(){}\[\]?:0-9\/a-z]\{1,3\}</tspan>
<tspan x="10" y="1738">- merge function testReportCreate into testReportMerge</tspan>
<tspan x="10" y="1754">- add custom env-object processEnv</tspan>
<tspan x="10" y="1770">- rename default env-var \$npm_package_name from utility2-lite to utility2</tspan>
<tspan x="10" y="1786">- merge shell-function shDockerCdHostPwd into shDockerSh</tspan>
<tspan x="10" y="1802">- jslint - add prefix "mode" in front of utility2-options</tspan>
<tspan x="10" y="1818">- add function svgBadgeCreate</tspan>
<tspan x="10" y="1834">- merge function testReportCreate into testReportMerge</tspan>
<tspan x="10" y="1850">- remove functions _http.createServer, _http.request,</tspan>
<tspan x="10" y="1866">- remove functions ajaxProgressUpdate,</tspan>
<tspan x="10" y="1882">- remove functions bufferConcat, bufferToUtf8, bufferValidateAndCoerce,</tspan>
<tspan x="10" y="1898">- remove functions coalesce, corsForwardProxyHostIfNeeded,</tspan>
<tspan x="10" y="1914">- remove functions domOnEventAjaxProgressUpdate, domOnEventDelegate</tspan>
<tspan x="10" y="1930">- remove functions fsRmrfSync,</tspan>
<tspan x="10" y="1946">- remove functions middlewareBodyRead, middlewareFowardProxy, middlewareUtility2StateInit,</tspan>
<tspan x="10" y="1962">- remove functions serverLocalUrlTest, stateInit, stringMerge,</tspan>
<tspan x="10" y="1978">- remove functions templateRender, throwError, timeElapsedPoll,</tspan>
<tspan x="10" y="1994">- remove functions urlParse,</tspan>
<tspan x="10" y="2010">- remove env-vars \$npm_config_dir_tmp, \$npm_config_file_tmp, \$npm_config_timeout_exit, \$npm_\</tspan><tspan x="10" y="2026">config_unsafe_perm, \$npm_config_mode_winpty</tspan>
<tspan x="10" y="2042">- rename env-vars \$GITHUB_ORG to \$GITHUB_OWNER, \$GITHUB_REPO to \$GITHUB_FULLNAME, \$NODE_BIN\</tspan><tspan x="10" y="2058">ARY to \$NODE_BIN, \$npm_config_dir_build to \$UTILITY2_DIR_BUILD, \$npm_config_dir_utility2 to \</tspan><tspan x="10" y="2074">\$UTILITY2_DIR_BIN \$npm_config_file_test_report to \$npm_config_mode_test_report</tspan>
<tspan x="10" y="2090">- remove shell-function shXvfbStart</tspan>
<tspan x="10" y="2106">- merge function testRunServer into testRunDefault</tspan>
<tspan x="10" y="2122">- remove function and test for function local.ajax</tspan>
<tspan x="10" y="2138">- remove nodejs.v10 polyfill TextDecoder, TextEncoder</tspan>
<tspan x="10" y="2154">- rename shell-function shReadmeTest to shReadmeEval</tspan>
<tspan x="10" y="2170"></tspan>
<tspan x="10" y="2186">2020-11-12 12:01:16 -0600</tspan>
<tspan x="10" y="2202">[npm publish] #### changelog 2020.11.12</tspan>
<tspan x="10" y="2218">- jslint - update to v2020.11.6</tspan>
<tspan x="10" y="2234">- update function chromeDevtoolsClient with timeout</tspan>
<tspan x="10" y="2250">- remove file lib.puppeteer.js and replace with function chromeDevtoolsClientCreate</tspan>
<tspan x="10" y="2266">- remove dependency on env-var \$CHROME_BIN</tspan>
<tspan x="10" y="2282">- remove functions base64FromBuffer, base64ToUtf8, cryptoAesXxxCbcRawDecrypt, cryptoAesXxxCbcRaw\</tspan><tspan x="10" y="2298">Encrypt, gotoNext, onErrorWithStack</tspan>
<tspan x="10" y="2314">- jslint - fix off-by-one column in autofix-expected_a_before_b</tspan>
<tspan x="10" y="2330">- decouple build from npm-env-variables npm_config_xxx and npm_package_xxx</tspan>
<tspan x="10" y="2346">- update lib.utility2.sh to remove dependency on \$UTILITY2_MACRO_JS</tspan>
<tspan x="10" y="2362"></tspan>
<tspan x="10" y="2378">2020-11-10 00:00:33 -0600</tspan>
<tspan x="10" y="2394">- update jslint to v2020.11.6</tspan>
<tspan x="10" y="2410">- update function chromeDevtoolsClient with timeout</tspan>
<tspan x="10" y="2426">- remove file lib.puppeteer.js and replace with function chromeDevtoolsClientCreate</tspan>
<tspan x="10" y="2442"></tspan>
<tspan x="10" y="2458">2020-11-09 12:46:21 -0600</tspan>
<tspan x="10" y="2474">- remove file lib.puppeteer.js and replace with function cdpClientCreate</tspan>
<tspan x="10" y="2490"></tspan>
<tspan x="10" y="2506">2020-11-08 18:43:03 -0600</tspan>
<tspan x="10" y="2522">- revamp file lib.puppeteer.js part 9 - merge classes Browser, Target into cdpClientCreate and b\</tspan><tspan x="10" y="2538">egin migrating listeners from session to cdpClient</tspan>
<tspan x="10" y="2554"></tspan>
<tspan x="10" y="2570">2020-11-07 23:15:06 -0600</tspan>
<tspan x="10" y="2586">- revamp file lib.puppeteer.js part 8 - inline classes BrowserContext, CDPSession, Connection, T\</tspan><tspan x="10" y="2602">askQueue</tspan>
<tspan x="10" y="2618"></tspan>
<tspan x="10" y="2634">2020-11-07 15:15:39 -0600</tspan>
<tspan x="10" y="2650">- revamp file lib.puppeteer.js part 7 - remove unused code</tspan>
<tspan x="10" y="2666"></tspan>
<tspan x="10" y="2682">2020-11-07 14:14:40 -0600</tspan>
<tspan x="10" y="2698">- revamp file lib.puppeteer.js part 6 - create single, source-of-truth callbackDict listing all \</tspan><tspan x="10" y="2714">pending callbacks in rpc-calls to chrome-browser</tspan>
<tspan x="10" y="2730"></tspan>
<tspan x="10" y="2746">2020-11-07 00:10:19 -0600</tspan>
<tspan x="10" y="2762">- update file lib.puppeteer.js with simplified websockets part 5 - update class CdpClient with c\</tspan><tspan x="10" y="2778">allback-ability after sending payload</tspan>
<tspan x="10" y="2794"></tspan>
<tspan x="10" y="2810">2020-11-07 00:06:48 -0600</tspan>
<tspan x="10" y="2826">- update file lib.puppeteer.js with simplified websockets part 4 - replace class WebSocket with \</tspan><tspan x="10" y="2842">CdpClient</tspan>
<tspan x="10" y="2858"></tspan>
<tspan x="10" y="2874">2020-11-06 20:24:53 -0600</tspan>
<tspan x="10" y="2890">- update file lib.puppeteer.js with simplified websockets part 3 - jslint file and replace calle\</tspan><tspan x="10" y="2906">r ws2.send() with sck2.cdpSend()</tspan>
<tspan x="10" y="2922">- rename function nop to noop</tspan>
<tspan x="10" y="2938"></tspan>
<tspan x="10" y="2954">2020-11-06 10:19:42 -0600</tspan>
<tspan x="10" y="2970">- update file lib.puppeteer.js with simplified websockets part 2 - remove websocket-server and w\</tspan><tspan x="10" y="2986">ebsocket-non-chrome code and errors</tspan>
<tspan x="10" y="3002"></tspan>
<tspan x="10" y="3018">2020-11-06 10:14:22 -0600</tspan>
<tspan x="10" y="3034">- update file lib.puppeteer.js with simplified websockets part 1 - preserve old errors</tspan>
<tspan x="10" y="3050"></tspan>
<tspan x="10" y="3066">2020-11-06 09:56:44 -0600</tspan>
<tspan x="10" y="3082">- remove dependency on env-var \$CHROME_BIN</tspan>
<tspan x="10" y="3098">- remove functions base64FromBuffer, base64ToUtf8, cryptoAesXxxCbcRawDecrypt, cryptoAesXxxCbcRaw\</tspan><tspan x="10" y="3114">Encrypt, gotoNext</tspan>
<tspan x="10" y="3130">- jslint - fix off-by-one column in autofix-expected_a_before_b</tspan>
<tspan x="10" y="3146"></tspan>
<tspan x="10" y="3162">2020-11-03 19:13:32 +0000</tspan>
<tspan x="10" y="3178">- decouple build from npm-env-variables npm_config_xxx and npm_package_xxx</tspan>
<tspan x="10" y="3194">- update lib.utility2.sh to remove dependency on \$UTILITY2_MACRO_JS</tspan>
<tspan x="10" y="3210">- remove functions cryptoAesXxxCbcRawDecrypt, cryptoAesXxxCbcRawEncrypt</tspan>
<tspan x="10" y="3226"></tspan>
<tspan x="10" y="3242">2020-11-03 10:17:02 -0600</tspan>
<tspan x="10" y="3258">[npm publish] #### changelog 2020.10.27</tspan>
<tspan x="10" y="3274">- update build to npm v7</tspan>
<tspan x="10" y="3290">- jslint - update to v2020.10.27</tspan>
<tspan x="10" y="3306">- jslint - add nullish-coalescing support</tspan>
<tspan x="10" y="3322">- jslint - add optional-chaining support</tspan>
<tspan x="10" y="3338">- experiment with github-actions</tspan>
<tspan x="10" y="3354">- update shell-function shGitInitBase with option dos2unix</tspan>
<tspan x="10" y="3370">- node v10.x - re-polyfill globalThis</tspan>
<tspan x="10" y="3386">- node v10.x - re-polyfill TextDecoder and TextEncoder</tspan>
<tspan x="10" y="3402">- remove blob-polyfill</tspan>
<tspan x="10" y="3418"></tspan>
<tspan x="10" y="3434">2020-08-19 18:47:06 -0500</tspan>
<tspan x="10" y="3450">[npm publish] #### changelog 2020.8.19</tspan>
<tspan x="10" y="3466">- add file lib.sqlite3.js</tspan>
<tspan x="10" y="3482">- jslint - require macro jslint-autofix:true to conditionally-autofix .json file</tspan>
<tspan x="10" y="3498">- add files lib.sqlite3.js</tspan>
<tspan x="10" y="3514"></tspan>
<tspan x="10" y="3530">2020-07-13 19:24:17 -0500</tspan>
<tspan x="10" y="3546">[npm publish] - change build-dir from tmp/build to .tmp/build</tspan>
<tspan x="10" y="3562">- istanbul - change coverage-directory from coverage.html/ to coverage/</tspan>
<tspan x="10" y="3578">- istanbul - remove filesUnderRoot subroutine</tspan>
<tspan x="10" y="3594">- istanbul - upgrade to acorn v6.4.1</tspan>
<tspan x="10" y="3610"></tspan>
<tspan x="10" y="3626">2020-07-08 12:24:46 -0500</tspan>
<tspan x="10" y="3642">[npm publish] #### changelog 2020.7.8</tspan>
<tspan x="10" y="3658">- jslint - generalize autofix-js-braket - normalize {\s+} to {}</tspan>
<tspan x="10" y="3674">- jslint - disable autofix-js - normalize prefix-operators to beginning-of-line</tspan>
<tspan x="10" y="3690">- jslint - disable autofix-js - escape non-ascii</tspan>
<tspan x="10" y="3706">- jslint - disable autofix-js-whitespace - remove double-whitespace</tspan>
<tspan x="10" y="3722">- jslint - disable autofix-js-braket - normalize to jslint-open-form (\n...\n)</tspan>
<tspan x="10" y="3738">- jslint - inline autofix-use_double</tspan>
<tspan x="10" y="3754">- re-add shell-function shServerPortRandom with port-availibility-check</tspan>
<tspan x="10" y="3770">- add shell-function shDockerCdHostPwd</tspan>
<tspan x="10" y="3786">- jslint - untangle goto-logic in function jslintAndPrint</tspan>
<tspan x="10" y="3802">- istanbul - inline __coverageInclude__ in function instrumentSync</tspan>
<tspan x="10" y="3818">- add function eventListenerRemove</tspan>
<tspan x="10" y="3834">- merge function buildLib, buildReadme, buildTest into buildApp</tspan>
<tspan x="10" y="3850">- split function buildApp into sub-functions buildAppAssets and buildAppStandalone</tspan>
<tspan x="10" y="3866">- jslint - revert function jslintAndPrintDir from promise to callback</tspan>
<tspan x="10" y="3882">- inline function onErrorThrow</tspan>
<tspan x="10" y="3898">- remove function childProcessEval, rmrfSync</tspan>
<tspan x="10" y="3914">- simplify function fsWriteFileWithMkdirp and fsWriteFileWithMkdirpSync to always console.error \</tspan><tspan x="10" y="3930">write-notification</tspan>
<tspan x="10" y="3946">- try to replace sync-functions with async-functions</tspan>
<tspan x="10" y="3962"></tspan>
<tspan x="10" y="3978">2020-06-13 14:42:23 -0500</tspan>
<tspan x="10" y="3994">[npm publish] #### changelog 2020.6.13</tspan>
<tspan x="10" y="4010">- fix excessive istanbul.ignore in test.js</tspan>
<tspan x="10" y="4026">- update function shRawLibFetch to inline dataUri assets</tspan>
<tspan x="10" y="4042">- jslint - add eslint-rule no-multiple-empty-lines</tspan>
<tspan x="10" y="4058">- bootstrap-lite - re-enable including css-asset in build-process</tspan>
<tspan x="10" y="4074">- add limited win32-compat</tspan>
<tspan x="10" y="4090">- rename function middlewareJsonpStateInit to middlewareUtility2StateInit</tspan>
<tspan x="10" y="4106">- merge shell-function shBuildAppSync and shUtility2DependentsSync into shBuildApp</tspan>
<tspan x="10" y="4122">- replace shell-function prefix shUtility2 with shUtility2Dependents</tspan>
<tspan x="10" y="4138">- replace deprecated fs.exists() with fs.access()</tspan>
<tspan x="10" y="4154">- add shell-function shUtility2DependentsShellEval</tspan>
<tspan x="10" y="4170">- remove globalThis polyfill</tspan>
<tspan x="10" y="4186">- remove shell-function shGitAddTee, shGithubRepoBranchId</tspan>
</text>
</svg>
