<svg height="5710px" width="720px" xmlns="http://www.w3.org/2000/svg">
<rect height="5710px" fill="#555" width="720px"></rect>
<text fill="#7f7" font-family="Consolas, Menlo, monospace" font-size="12" xml:space="preserve">
<tspan x="10" y="26">2020-12-07 01:14:54 -0600</tspan>
<tspan x="10" y="42">cull.env</tspan>
<tspan x="10" y="58"></tspan>
<tspan x="10" y="74">2020-12-07 01:08:11 -0600</tspan>
<tspan x="10" y="90">- rename shBuildXxx to shCiXxx</tspan>
<tspan x="10" y="106"></tspan>
<tspan x="10" y="122">2020-12-07 00:41:47 -0600</tspan>
<tspan x="10" y="138">- rename shBuildXxx to shCiXxx</tspan>
<tspan x="10" y="154"></tspan>
<tspan x="10" y="170">2020-12-07 00:40:03 -0600</tspan>
<tspan x="10" y="186">- rename shBuildXxx to shCiXxx</tspan>
<tspan x="10" y="202"></tspan>
<tspan x="10" y="218">2020-12-07 00:28:31 -0600</tspan>
<tspan x="10" y="234">- rename shBuildXxx to shCiXxx</tspan>
<tspan x="10" y="250"></tspan>
<tspan x="10" y="266">2020-12-06 23:57:30 -0600</tspan>
<tspan x="10" y="282">- rename shBuildXxx to shCiXxx</tspan>
<tspan x="10" y="298"></tspan>
<tspan x="10" y="314">2020-12-06 23:53:51 -0600</tspan>
<tspan x="10" y="330">- rename shBuildXxx to shCiXxx</tspan>
<tspan x="10" y="346"></tspan>
<tspan x="10" y="362">2020-12-06 23:51:32 -0600</tspan>
<tspan x="10" y="378">- rename shBuildXxx to shCiXxx</tspan>
<tspan x="10" y="394"></tspan>
<tspan x="10" y="410">2020-12-06 23:47:31 -0600</tspan>
<tspan x="10" y="426">- rename shBuildXxx to shCiXxx</tspan>
<tspan x="10" y="442"></tspan>
<tspan x="10" y="458">2020-12-06 23:46:56 -0600</tspan>
<tspan x="10" y="474">- rename shBuildXxx to shCiXxx</tspan>
<tspan x="10" y="490"></tspan>
<tspan x="10" y="506">2020-12-06 23:00:44 -0600</tspan>
<tspan x="10" y="522">debug.env</tspan>
<tspan x="10" y="538"></tspan>
<tspan x="10" y="554">2020-12-06 22:59:17 -0600</tspan>
<tspan x="10" y="570">revert</tspan>
<tspan x="10" y="586"></tspan>
<tspan x="10" y="602">2020-12-06 22:54:42 -0600</tspan>
<tspan x="10" y="618">- rename env var \$GITHUB_FULLNAME to \$GITHUB_REPOSITORY</tspan>
<tspan x="10" y="634"></tspan>
<tspan x="10" y="650">2020-12-06 22:54:07 -0600</tspan>
<tspan x="10" y="666">- rename env var \$GITHUB_FULLNAME to \$GITHUB_REPOSITORY</tspan>
<tspan x="10" y="682"></tspan>
<tspan x="10" y="698">2020-12-06 22:48:20 -0600</tspan>
<tspan x="10" y="714">disable.travis</tspan>
<tspan x="10" y="730"></tspan>
<tspan x="10" y="746">2020-12-06 22:46:35 -0600</tspan>
<tspan x="10" y="762">disable.publish</tspan>
<tspan x="10" y="778"></tspan>
<tspan x="10" y="794">2020-12-06 22:43:11 -0600</tspan>
<tspan x="10" y="810">disable.publish</tspan>
<tspan x="10" y="826"></tspan>
<tspan x="10" y="842">2020-12-06 22:42:18 -0600</tspan>
<tspan x="10" y="858">disable.comment</tspan>
<tspan x="10" y="874"></tspan>
<tspan x="10" y="890">2020-12-06 22:41:24 -0600</tspan>
<tspan x="10" y="906">disable.comment</tspan>
<tspan x="10" y="922"></tspan>
<tspan x="10" y="938">2020-12-06 22:38:45 -0600</tspan>
<tspan x="10" y="954">- pre - migrate from travis to github-actions</tspan>
<tspan x="10" y="970"></tspan>
<tspan x="10" y="986">2020-12-06 15:56:41 -0600</tspan>
<tspan x="10" y="1002">- remove shell-functions shNpmDeprecateAlias, shNpmPublishAlias</tspan>
<tspan x="10" y="1018">- merge shell-function shIstanbulCover into shNpmTest</tspan>
<tspan x="10" y="1034">- update shell-function shRunWithScreenshotTxt with fixed \$EXIT_CODE</tspan>
<tspan x="10" y="1050"></tspan>
<tspan x="10" y="1066">2020-12-05 18:46:41 -0600</tspan>
<tspan x="10" y="1082">- cleanup function requireReadme</tspan>
<tspan x="10" y="1098">- replace var isBrowser with isEnvNode and remove unused var isWebWorker</tspan>
<tspan x="10" y="1114">- merge state modeTest into npm_config_mode_test, modeTestCase into npm_config_mode_test_case, t\</tspan><tspan x="10" y="1130">imeoutDefault into npm_config_timeout</tspan>
<tspan x="10" y="1146"></tspan>
<tspan x="10" y="1162">2020-12-05 05:32:27 -0600</tspan>
<tspan x="10" y="1178">- add functions documentQuerySelectorAll</tspan>
<tspan x="10" y="1194">- remove functions middlewareXxx, onParallelXxx, streamCleanup</tspan>
<tspan x="10" y="1210"></tspan>
<tspan x="10" y="1226">2020-12-03 14:48:23 -0600</tspan>
<tspan x="10" y="1242">- migrate from .then() to async/await</tspan>
<tspan x="10" y="1258">- add file .windows_terminals_settings.json</tspan>
<tspan x="10" y="1274"></tspan>
<tspan x="10" y="1290">2020-12-02 19:55:42 -0600</tspan>
<tspan x="10" y="1306">- remove functions streamCleanup</tspan>
<tspan x="10" y="1322">- remove whitespace in shell-functions</tspan>
<tspan x="10" y="1338"></tspan>
<tspan x="10" y="1354">2020-12-02 18:07:50 -0600</tspan>
<tspan x="10" y="1370">[npm publish] #### changelog 2020.12.1</tspan>
<tspan x="10" y="1386">- add persistent repl-history between restart</tspan>
<tspan x="10" y="1402">- rename var command to cmd</tspan>
<tspan x="10" y="1418">- replace functions utility2_onReadyBefore and utility2_onReadyAfter with onReadyIncrement and o\</tspan><tspan x="10" y="1434">nReadyDecrement</tspan>
<tspan x="10" y="1450">- remove jslint-ignore statements from file lib.utility2.js</tspan>
<tspan x="10" y="1466">- move binary-operators from bol to eol - ,$s/\n\(  *\)\(+\|-\|&amp;&amp;\|||\|.==\||\|&amp;\) / \2\r\1/gc -\</tspan><tspan x="10" y="1482"> ^  *[^ *"(){}\[\]?:0-9\/a-z]\{1,3\}</tspan>
<tspan x="10" y="1498">- merge function testReportCreate into testReportMerge</tspan>
<tspan x="10" y="1514">- add custom env-object processEnv</tspan>
<tspan x="10" y="1530">- rename default env-var \$npm_package_name from utility2-lite to utility2</tspan>
<tspan x="10" y="1546">- merge shell-function shDockerCdHostPwd into shDockerSh</tspan>
<tspan x="10" y="1562">- jslint - add prefix "mode" in front of utility2-options</tspan>
<tspan x="10" y="1578">- add function svgBadgeCreate</tspan>
<tspan x="10" y="1594">- merge function testReportCreate into testReportMerge</tspan>
<tspan x="10" y="1610">- remove functions _http.createServer, _http.request,</tspan>
<tspan x="10" y="1626">- remove functions ajaxProgressUpdate,</tspan>
<tspan x="10" y="1642">- remove functions bufferConcat, bufferToUtf8, bufferValidateAndCoerce,</tspan>
<tspan x="10" y="1658">- remove functions coalesce, corsForwardProxyHostIfNeeded,</tspan>
<tspan x="10" y="1674">- remove functions domOnEventAjaxProgressUpdate, domOnEventDelegate</tspan>
<tspan x="10" y="1690">- remove functions fsRmrfSync,</tspan>
<tspan x="10" y="1706">- remove functions middlewareBodyRead, middlewareFowardProxy, middlewareUtility2StateInit,</tspan>
<tspan x="10" y="1722">- remove functions serverLocalUrlTest, stateInit, stringMerge,</tspan>
<tspan x="10" y="1738">- remove functions templateRender, throwError, timeElapsedPoll,</tspan>
<tspan x="10" y="1754">- remove functions urlParse,</tspan>
<tspan x="10" y="1770">- remove env-vars \$npm_config_dir_tmp, \$npm_config_file_tmp, \$npm_config_timeout_exit, \$npm_\</tspan><tspan x="10" y="1786">config_unsafe_perm, \$npm_config_mode_winpty</tspan>
<tspan x="10" y="1802">- rename env-vars \$GITHUB_ORG to \$GITHUB_OWNER, \$GITHUB_REPO to \$GITHUB_FULLNAME, \$NODE_BIN\</tspan><tspan x="10" y="1818">ARY to \$NODE_BIN, \$npm_config_dir_build to \$UTILITY2_DIR_BUILD, \$npm_config_dir_utility2 to \</tspan><tspan x="10" y="1834">\$UTILITY2_DIR_BIN \$npm_config_file_test_report to \$npm_config_mode_test_report</tspan>
<tspan x="10" y="1850">- remove shell-function shXvfbStart</tspan>
<tspan x="10" y="1866">- merge function testRunServer into testRunDefault</tspan>
<tspan x="10" y="1882">- remove function and test for function local.ajax</tspan>
<tspan x="10" y="1898">- remove nodejs.v10 polyfill TextDecoder, TextEncoder</tspan>
<tspan x="10" y="1914">- rename shell-function shReadmeTest to shReadmeEval</tspan>
<tspan x="10" y="1930"></tspan>
<tspan x="10" y="1946">2020-11-12 12:01:16 -0600</tspan>
<tspan x="10" y="1962">[npm publish] #### changelog 2020.11.12</tspan>
<tspan x="10" y="1978">- jslint - update to v2020.11.6</tspan>
<tspan x="10" y="1994">- update function chromeDevtoolsClient with timeout</tspan>
<tspan x="10" y="2010">- remove file lib.puppeteer.js and replace with function chromeDevtoolsClientCreate</tspan>
<tspan x="10" y="2026">- remove dependency on env-var \$CHROME_BIN</tspan>
<tspan x="10" y="2042">- remove functions base64FromBuffer, base64ToUtf8, cryptoAesXxxCbcRawDecrypt, cryptoAesXxxCbcRaw\</tspan><tspan x="10" y="2058">Encrypt, gotoNext, onErrorWithStack</tspan>
<tspan x="10" y="2074">- jslint - fix off-by-one column in autofix-expected_a_before_b</tspan>
<tspan x="10" y="2090">- decouple build from npm-env-variables npm_config_xxx and npm_package_xxx</tspan>
<tspan x="10" y="2106">- update lib.utility2.sh to remove dependency on \$UTILITY2_MACRO_JS</tspan>
<tspan x="10" y="2122"></tspan>
<tspan x="10" y="2138">2020-11-10 00:00:33 -0600</tspan>
<tspan x="10" y="2154">- update jslint to v2020.11.6</tspan>
<tspan x="10" y="2170">- update function chromeDevtoolsClient with timeout</tspan>
<tspan x="10" y="2186">- remove file lib.puppeteer.js and replace with function chromeDevtoolsClientCreate</tspan>
<tspan x="10" y="2202"></tspan>
<tspan x="10" y="2218">2020-11-09 12:46:21 -0600</tspan>
<tspan x="10" y="2234">- remove file lib.puppeteer.js and replace with function cdpClientCreate</tspan>
<tspan x="10" y="2250"></tspan>
<tspan x="10" y="2266">2020-11-08 18:43:03 -0600</tspan>
<tspan x="10" y="2282">- revamp file lib.puppeteer.js part 9 - merge classes Browser, Target into cdpClientCreate and b\</tspan><tspan x="10" y="2298">egin migrating listeners from session to cdpClient</tspan>
<tspan x="10" y="2314"></tspan>
<tspan x="10" y="2330">2020-11-07 23:15:06 -0600</tspan>
<tspan x="10" y="2346">- revamp file lib.puppeteer.js part 8 - inline classes BrowserContext, CDPSession, Connection, T\</tspan><tspan x="10" y="2362">askQueue</tspan>
<tspan x="10" y="2378"></tspan>
<tspan x="10" y="2394">2020-11-07 15:15:39 -0600</tspan>
<tspan x="10" y="2410">- revamp file lib.puppeteer.js part 7 - remove unused code</tspan>
<tspan x="10" y="2426"></tspan>
<tspan x="10" y="2442">2020-11-07 14:14:40 -0600</tspan>
<tspan x="10" y="2458">- revamp file lib.puppeteer.js part 6 - create single, source-of-truth callbackDict listing all \</tspan><tspan x="10" y="2474">pending callbacks in rpc-calls to chrome-browser</tspan>
<tspan x="10" y="2490"></tspan>
<tspan x="10" y="2506">2020-11-07 00:10:19 -0600</tspan>
<tspan x="10" y="2522">- update file lib.puppeteer.js with simplified websockets part 5 - update class CdpClient with c\</tspan><tspan x="10" y="2538">allback-ability after sending payload</tspan>
<tspan x="10" y="2554"></tspan>
<tspan x="10" y="2570">2020-11-07 00:06:48 -0600</tspan>
<tspan x="10" y="2586">- update file lib.puppeteer.js with simplified websockets part 4 - replace class WebSocket with \</tspan><tspan x="10" y="2602">CdpClient</tspan>
<tspan x="10" y="2618"></tspan>
<tspan x="10" y="2634">2020-11-06 20:24:53 -0600</tspan>
<tspan x="10" y="2650">- update file lib.puppeteer.js with simplified websockets part 3 - jslint file and replace calle\</tspan><tspan x="10" y="2666">r ws2.send() with sck2.cdpSend()</tspan>
<tspan x="10" y="2682">- rename function nop to noop</tspan>
<tspan x="10" y="2698"></tspan>
<tspan x="10" y="2714">2020-11-06 10:19:42 -0600</tspan>
<tspan x="10" y="2730">- update file lib.puppeteer.js with simplified websockets part 2 - remove websocket-server and w\</tspan><tspan x="10" y="2746">ebsocket-non-chrome code and errors</tspan>
<tspan x="10" y="2762"></tspan>
<tspan x="10" y="2778">2020-11-06 10:14:22 -0600</tspan>
<tspan x="10" y="2794">- update file lib.puppeteer.js with simplified websockets part 1 - preserve old errors</tspan>
<tspan x="10" y="2810"></tspan>
<tspan x="10" y="2826">2020-11-06 09:56:44 -0600</tspan>
<tspan x="10" y="2842">- remove dependency on env-var \$CHROME_BIN</tspan>
<tspan x="10" y="2858">- remove functions base64FromBuffer, base64ToUtf8, cryptoAesXxxCbcRawDecrypt, cryptoAesXxxCbcRaw\</tspan><tspan x="10" y="2874">Encrypt, gotoNext</tspan>
<tspan x="10" y="2890">- jslint - fix off-by-one column in autofix-expected_a_before_b</tspan>
<tspan x="10" y="2906"></tspan>
<tspan x="10" y="2922">2020-11-03 19:13:32 +0000</tspan>
<tspan x="10" y="2938">- decouple build from npm-env-variables npm_config_xxx and npm_package_xxx</tspan>
<tspan x="10" y="2954">- update lib.utility2.sh to remove dependency on \$UTILITY2_MACRO_JS</tspan>
<tspan x="10" y="2970">- remove functions cryptoAesXxxCbcRawDecrypt, cryptoAesXxxCbcRawEncrypt</tspan>
<tspan x="10" y="2986"></tspan>
<tspan x="10" y="3002">2020-11-03 10:17:02 -0600</tspan>
<tspan x="10" y="3018">[npm publish] #### changelog 2020.10.27</tspan>
<tspan x="10" y="3034">- update build to npm v7</tspan>
<tspan x="10" y="3050">- jslint - update to v2020.10.27</tspan>
<tspan x="10" y="3066">- jslint - add nullish-coalescing support</tspan>
<tspan x="10" y="3082">- jslint - add optional-chaining support</tspan>
<tspan x="10" y="3098">- experiment with github-actions</tspan>
<tspan x="10" y="3114">- update shell-function shGitInitBase with option dos2unix</tspan>
<tspan x="10" y="3130">- node v10.x - re-polyfill globalThis</tspan>
<tspan x="10" y="3146">- node v10.x - re-polyfill TextDecoder and TextEncoder</tspan>
<tspan x="10" y="3162">- remove blob-polyfill</tspan>
<tspan x="10" y="3178"></tspan>
<tspan x="10" y="3194">2020-08-19 18:47:06 -0500</tspan>
<tspan x="10" y="3210">[npm publish] #### changelog 2020.8.19</tspan>
<tspan x="10" y="3226">- add file lib.sqlite3.js</tspan>
<tspan x="10" y="3242">- jslint - require macro jslint-autofix:true to conditionally-autofix .json file</tspan>
<tspan x="10" y="3258">- add files lib.sqlite3.js</tspan>
<tspan x="10" y="3274"></tspan>
<tspan x="10" y="3290">2020-07-13 19:24:17 -0500</tspan>
<tspan x="10" y="3306">[npm publish] - change build-dir from tmp/build to .tmp/build</tspan>
<tspan x="10" y="3322">- istanbul - change coverage-directory from coverage.html/ to coverage/</tspan>
<tspan x="10" y="3338">- istanbul - remove filesUnderRoot subroutine</tspan>
<tspan x="10" y="3354">- istanbul - upgrade to acorn v6.4.1</tspan>
<tspan x="10" y="3370"></tspan>
<tspan x="10" y="3386">2020-07-08 12:24:46 -0500</tspan>
<tspan x="10" y="3402">[npm publish] #### changelog 2020.7.8</tspan>
<tspan x="10" y="3418">- jslint - generalize autofix-js-braket - normalize {\s+} to {}</tspan>
<tspan x="10" y="3434">- jslint - disable autofix-js - normalize prefix-operators to beginning-of-line</tspan>
<tspan x="10" y="3450">- jslint - disable autofix-js - escape non-ascii</tspan>
<tspan x="10" y="3466">- jslint - disable autofix-js-whitespace - remove double-whitespace</tspan>
<tspan x="10" y="3482">- jslint - disable autofix-js-braket - normalize to jslint-open-form (\n...\n)</tspan>
<tspan x="10" y="3498">- jslint - inline autofix-use_double</tspan>
<tspan x="10" y="3514">- re-add shell-function shServerPortRandom with port-availibility-check</tspan>
<tspan x="10" y="3530">- add shell-function shDockerCdHostPwd</tspan>
<tspan x="10" y="3546">- jslint - untangle goto-logic in function jslintAndPrint</tspan>
<tspan x="10" y="3562">- istanbul - inline __coverageInclude__ in function instrumentSync</tspan>
<tspan x="10" y="3578">- add function eventListenerRemove</tspan>
<tspan x="10" y="3594">- merge function buildLib, buildReadme, buildTest into buildApp</tspan>
<tspan x="10" y="3610">- split function buildApp into sub-functions buildAppAssets and buildAppStandalone</tspan>
<tspan x="10" y="3626">- jslint - revert function jslintAndPrintDir from promise to callback</tspan>
<tspan x="10" y="3642">- inline function onErrorThrow</tspan>
<tspan x="10" y="3658">- remove function childProcessEval, rmrfSync</tspan>
<tspan x="10" y="3674">- simplify function fsWriteFileWithMkdirp and fsWriteFileWithMkdirpSync to always console.error \</tspan><tspan x="10" y="3690">write-notification</tspan>
<tspan x="10" y="3706">- try to replace sync-functions with async-functions</tspan>
<tspan x="10" y="3722"></tspan>
<tspan x="10" y="3738">2020-06-13 14:42:23 -0500</tspan>
<tspan x="10" y="3754">[npm publish] #### changelog 2020.6.13</tspan>
<tspan x="10" y="3770">- fix excessive istanbul.ignore in test.js</tspan>
<tspan x="10" y="3786">- update function shRawLibFetch to inline dataUri assets</tspan>
<tspan x="10" y="3802">- jslint - add eslint-rule no-multiple-empty-lines</tspan>
<tspan x="10" y="3818">- bootstrap-lite - re-enable including css-asset in build-process</tspan>
<tspan x="10" y="3834">- add limited win32-compat</tspan>
<tspan x="10" y="3850">- rename function middlewareJsonpStateInit to middlewareUtility2StateInit</tspan>
<tspan x="10" y="3866">- merge shell-function shBuildAppSync and shUtility2DependentsSync into shBuildApp</tspan>
<tspan x="10" y="3882">- replace shell-function prefix shUtility2 with shUtility2Dependents</tspan>
<tspan x="10" y="3898">- replace deprecated fs.exists() with fs.access()</tspan>
<tspan x="10" y="3914">- add shell-function shUtility2DependentsShellEval</tspan>
<tspan x="10" y="3930">- remove globalThis polyfill</tspan>
<tspan x="10" y="3946">- remove shell-function shGitAddTee, shGithubRepoBranchId</tspan>
<tspan x="10" y="3962"></tspan>
<tspan x="10" y="3978">2020-06-08 20:59:56 -0500</tspan>
<tspan x="10" y="3994">[npm publish] - npm publish 2020.6.9</tspan>
<tspan x="10" y="4010">- add shell-function shTravisRepoTrigger</tspan>
<tspan x="10" y="4026">- remove shell-macro UTILITY2_MACRO_AJAX_JS</tspan>
<tspan x="10" y="4042">- remove ajax-helper-class FormData</tspan>
<tspan x="10" y="4058">- minimize dependency to local</tspan>
<tspan x="10" y="4074">- remove eagerly requiring nodejs-builtins</tspan>
<tspan x="10" y="4090">- migrate ci from travis-ci.org to travis-ci.com</tspan>
<tspan x="10" y="4106">- remove "a" from comments</tspan>
<tspan x="10" y="4122">- remove shell-functions</tspan>
<tspan x="10" y="4138">    shModuleDirname,</tspan>
<tspan x="10" y="4154">    shDockerBuildCleanup,</tspan>
<tspan x="10" y="4170">    shHtpasswdCreate,</tspan>
<tspan x="10" y="4186">    shGitLsTreeSort, shGithubDateCommitted,</tspan>
<tspan x="10" y="4202">    shHtpasswdCreate,</tspan>
<tspan x="10" y="4218">    shMediaHlsEncrypt, shMediaHlsFromMp4,</tspan>
<tspan x="10" y="4234">    shNpmInstallTarball,</tspan>
<tspan x="10" y="4250">    shPasswordRandom,</tspan>
<tspan x="10" y="4266">    shSsh5022F, shSsh5022R, shServerPortRandom,</tspan>
<tspan x="10" y="4282">    shReadmeLinkValidate, shReplClient,</tspan>
<tspan x="10" y="4298">    shTravisRepoBuildCancel, shTravisRepoBuildRestart, shTravisSync,</tspan>
<tspan x="10" y="4314">    shUtility2Dependents,</tspan>
<tspan x="10" y="4330">- cleanup env-var UTILITY2_MACRO_JS</tspan>
<tspan x="10" y="4346">- istanbul - fix html-coverage-report bug showing branch-metrics instead of line-metrics</tspan>
<tspan x="10" y="4362">- inline local._http.STATUS_CODES into function serverRespondDefault</tspan>
<tspan x="10" y="4378">- remove object local.errorDefault</tspan>
<tspan x="10" y="4394">- rename errorMessage to errMsg, errorStack to errStack</tspan>
<tspan x="10" y="4410">- remove polyfills String.prototype.trimStart, String.prototype.trimEnd</tspan>
<tspan x="10" y="4426">- throw error on unhandled-rejections via process.unhandledRejections=strict</tspan>
<tspan x="10" y="4442">- add functions</tspan>
<tspan x="10" y="4458">    objectDeepCopyWithKeysSorted,</tspan>
<tspan x="10" y="4474">    childProcessEval,</tspan>
<tspan x="10" y="4490">    fsWriteFileWithMkdirp,</tspan>
<tspan x="10" y="4506">- remove functions</tspan>
<tspan x="10" y="4522">    httpFetch,</tspan>
<tspan x="10" y="4538">    objectAssignRecurse,</tspan>
<tspan x="10" y="4554">    corsBackendHostInject,</tspan>
<tspan x="10" y="4570">    stringLineCount,</tspan>
<tspan x="10" y="4586">    onFileModifiedRestart,</tspan>
<tspan x="10" y="4602">    jsonStringifyOrdered, jsonCopy,</tspan>
<tspan x="10" y="4618">    listGetElementRandom,</tspan>
<tspan x="10" y="4634">    bufferIndexOfSubBuffer, base64urlFromBuffer bufferRandomBytes,</tspan>
<tspan x="10" y="4650">    assertJsonNotEqual,</tspan>
<tspan x="10" y="4666">    childProcessSpawnWithTimeout, childProcessSpawnWithUtility2,</tspan>
<tspan x="10" y="4682">    dateGetWeekOfMonth, dateGetWeekOfYear, dateUtcFromLocal, dateUtcToLocal,</tspan>
<tspan x="10" y="4698">    isNullOrUndefined,</tspan>
<tspan x="10" y="4714">    localStorageSetItemOrClear,</tspan>
<tspan x="10" y="4730">    normalizeJwt, normalizeJwtBase64Url, numberToRomanNumerals,</tspan>
<tspan x="10" y="4746">    onErrorDefault,</tspan>
<tspan x="10" y="4762">    promisify,</tspan>
<tspan x="10" y="4778">    timeElapsedPoll, timeElapsedStart,</tspan>
<tspan x="10" y="4794">- remove dependency to files lib.github_crud.js, lib.swgg.js</tspan>
<tspan x="10" y="4810"></tspan>
<tspan x="10" y="4826">2020-06-02 12:15:15 -0500</tspan>
<tspan x="10" y="4842">[npm publish] - npm publish 2020.5.31</tspan>
<tspan x="10" y="4858">- update file raw.istanbul.js</tspan>
<tspan x="10" y="4874">- remove excessive "the" from comments</tspan>
<tspan x="10" y="4890">- remove build-process for css-file</tspan>
<tspan x="10" y="4906">- replace function local.objectSetDefault with objectAssignDefault</tspan>
<tspan x="10" y="4922">- replace process.cwd() with path.resolve()</tspan>
<tspan x="10" y="4938">- rename shell-function shPackageJsonVersionUpdate to shPackageJsonVersionIncrement</tspan>
<tspan x="10" y="4954">- remove functions</tspan>
<tspan x="10" y="4970">    functionOrNop,</tspan>
<tspan x="10" y="4986">    local.querySelector,</tspan>
<tspan x="10" y="5002">    local.querySelectorAll,</tspan>
<tspan x="10" y="5018">    middlewareForwardProxy,</tspan>
<tspan x="10" y="5034">    onTimeout,</tspan>
<tspan x="10" y="5050">    profile,</tspan>
<tspan x="10" y="5066">    profileSync,</tspan>
<tspan x="10" y="5082">    semverCompare,</tspan>
<tspan x="10" y="5098">    serverRespondCors,</tspan>
<tspan x="10" y="5114">- replace function fsReadFileOrEmptyStringSync with fsReadFileOrDefaultSync</tspan>
<tspan x="10" y="5130">- remove dependency to file lib.swgg.js</tspan>
<tspan x="10" y="5146">- inline object local.contentTypeDict</tspan>
<tspan x="10" y="5162">- istanbul - inline function templateRender</tspan>
<tspan x="10" y="5178"></tspan>
<tspan x="10" y="5194">2020-05-25 23:35:44 -0500</tspan>
<tspan x="10" y="5210">[npm publish] - npm publish 2020.5.25</tspan>
<tspan x="10" y="5226">- istanbul - rename __coverageCodeDict__ to __coverageInclude__</tspan>
<tspan x="10" y="5242">- istanbul - rewrite function coverageReportCreate</tspan>
<tspan x="10" y="5258"></tspan>
<tspan x="10" y="5274">2020-05-25 12:08:55 -0500</tspan>
<tspan x="10" y="5290">[npm publish] - npm publish 2020.5.20</tspan>
<tspan x="10" y="5306">- jslint - add debug-option to pring stack-trace of first warning</tspan>
<tspan x="10" y="5322">- update shell-functions shCryptoTravisDecrypt, shCryptoTravisEncrypt</tspan>
<tspan x="10" y="5338">- jslint - prefer undefined over null in file lib.jslint.js</tspan>
<tspan x="10" y="5354">- jslint - validate sort nested switch-statements</tspan>
<tspan x="10" y="5370">- update to jslint v2020.03.28</tspan>
<tspan x="10" y="5386">- update shell-function shRawLibFetch with check validating all replacement-expressions were use\</tspan><tspan x="10" y="5402">d</tspan>
<tspan x="10" y="5418"></tspan>
<tspan x="10" y="5434">2020-03-17 02:03:28 -0500</tspan>
<tspan x="10" y="5450">[npm publish] - npm publish 2020.3.17</tspan>
<tspan x="10" y="5466">- add modal-support to function window.domOnEventAjaxProgressUpdate</tspan>
<tspan x="10" y="5482">- update shell-function shRawLibFetch to accept footer after file-none</tspan>
<tspan x="10" y="5498">- un-rename errDefault to errorDefault</tspan>
<tspan x="10" y="5514">- remove function errorMessagePrepend</tspan>
<tspan x="10" y="5530">- rename message to msg</tspan>
<tspan x="10" y="5546">- rename text to str</tspan>
<tspan x="10" y="5562">- update shell-function shRawLibFetch to apply diff</tspan>
<tspan x="10" y="5578">- add function promisify</tspan>
<tspan x="10" y="5594">- update function httpFetch with abort-handling</tspan>
<tspan x="10" y="5610">- update function shRawLibFetch to inline-fetch resources to raw.xxx.js</tspan>
<tspan x="10" y="5626">- add function httpFetch using fetch-api and promises</tspan>
<tspan x="10" y="5642">- remove polyfills Array.p.flat, Array.p.flatMap, TextDecoder, TextEncoder</tspan>
<tspan x="10" y="5658">- add workaround for nodejs v12 bug - https://github.com/libuv/libuv/issues/2587</tspan>
<tspan x="10" y="5674">- add function stringLineCount</tspan>
<tspan x="10" y="5690">- simplify globalThis polyfill</tspan>
</text>
</svg>
