<svg height="3038" width="720" xmlns="http://www.w3.org/2000/svg">
<rect height="3038" fill="#555" width="720"></rect>
<text fill="#7f7" font-family="Courier New" font-size="12" xml:space="preserve">
<tspan x="10" y="26">2019-10-15 11:57:04 -0500</tspan>

<tspan x="10" y="42">mkdirp</tspan>

<tspan x="10" y="58"></tspan>

<tspan x="10" y="74">2019-10-15 11:53:08 -0500</tspan>

<tspan x="10" y="90">jslint</tspan>

<tspan x="10" y="106"></tspan>

<tspan x="10" y="122">2019-10-11 14:19:48 -0500</tspan>

<tspan x="10" y="138">- fix build-ci for bootstrap-lite, jslint-lite</tspan>

<tspan x="10" y="154"></tspan>

<tspan x="10" y="170">2019-10-11 13:36:09 -0500</tspan>

<tspan x="10" y="186">- fix build-ci for bootstrap-lite, jslint-lite</tspan>

<tspan x="10" y="202"></tspan>

<tspan x="10" y="218">2019-10-10 17:33:42 -0500</tspan>

<tspan x="10" y="234">- rename shell-function shRawJsXxx to shRawLibXxx</tspan>

<tspan x="10" y="250"></tspan>

<tspan x="10" y="266">2019-10-10 16:50:26 -0500</tspan>

<tspan x="10" y="282">- rename shell-function shRawJsXxx to shRawLibXxx</tspan>

<tspan x="10" y="298"></tspan>

<tspan x="10" y="314">2019-10-10 16:44:46 -0500</tspan>

<tspan x="10" y="330">shRawJsFetch</tspan>

<tspan x="10" y="346"></tspan>

<tspan x="10" y="362">2019-10-10 16:38:06 -0500</tspan>

<tspan x="10" y="378">shRawJsFetch</tspan>

<tspan x="10" y="394"></tspan>

<tspan x="10" y="410">2019-10-10 16:34:07 -0500</tspan>

<tspan x="10" y="426">shRawJsFetch2.puppeteer</tspan>

<tspan x="10" y="442"></tspan>

<tspan x="10" y="458">2019-10-10 16:27:32 -0500</tspan>

<tspan x="10" y="474">slushy.shRawJsFetch2.puppeteer</tspan>

<tspan x="10" y="490"></tspan>

<tspan x="10" y="506">2019-10-10 16:15:57 -0500</tspan>

<tspan x="10" y="522">slushy.shRawJsFetch2.puppeteer</tspan>

<tspan x="10" y="538"></tspan>

<tspan x="10" y="554">2019-10-10 16:12:22 -0500</tspan>

<tspan x="10" y="570">slushy.shRawJsFetch2.puppeteer</tspan>

<tspan x="10" y="586"></tspan>

<tspan x="10" y="602">2019-10-10 16:05:28 -0500</tspan>

<tspan x="10" y="618">slushy.shRawJsFetch2</tspan>

<tspan x="10" y="634"></tspan>

<tspan x="10" y="650">2019-10-10 15:56:28 -0500</tspan>

<tspan x="10" y="666">slushy.shRawJsFetch2</tspan>

<tspan x="10" y="682"></tspan>

<tspan x="10" y="698">2019-10-10 15:15:21 -0500</tspan>

<tspan x="10" y="714">slushy.shRawJsFetch2</tspan>

<tspan x="10" y="730"></tspan>

<tspan x="10" y="746">2019-10-10 14:49:36 -0500</tspan>

<tspan x="10" y="762">slushy.shRawJsFetch2</tspan>

<tspan x="10" y="778"></tspan>

<tspan x="10" y="794">2019-10-09 20:19:33 -0500</tspan>

<tspan x="10" y="810">- jslint - add bigint support</tspan>

<tspan x="10" y="826"></tspan>

<tspan x="10" y="842">2019-10-09 19:53:07 -0500</tspan>

<tspan x="10" y="858">- jslint - add bigint support</tspan>

<tspan x="10" y="874"></tspan>

<tspan x="10" y="890">2019-10-09 17:26:42 -0500</tspan>

<tspan x="10" y="906">- remove assets.utility2.base.html</tspan>

<tspan x="10" y="922"></tspan>

<tspan x="10" y="938">2019-10-09 17:19:44 -0500</tspan>

<tspan x="10" y="954">- fix build-ci for bootstrap-lite, jslint-lite</tspan>

<tspan x="10" y="970"></tspan>

<tspan x="10" y="986">2019-10-09 16:57:58 -0500</tspan>

<tspan x="10" y="1002">- fix build-ci for bootstrap-lite, jslint-lite</tspan>

<tspan x="10" y="1018"></tspan>

<tspan x="10" y="1034">2019-10-09 21:53:55 +0000</tspan>

<tspan x="10" y="1050">- jslint - prefer undefined over null</tspan>

<tspan x="10" y="1066"></tspan>

<tspan x="10" y="1082">2019-10-09 16:47:29 -0500</tspan>

<tspan x="10" y="1098">shRawJsFetch</tspan>

<tspan x="10" y="1114"></tspan>

<tspan x="10" y="1130">2019-10-09 16:45:40 -0500</tspan>

<tspan x="10" y="1146">shRawJsFetch</tspan>

<tspan x="10" y="1162"></tspan>

<tspan x="10" y="1178">2019-10-09 16:31:44 -0500</tspan>

<tspan x="10" y="1194">- fix build-ci for bootstrap-lite, jslint-lite</tspan>

<tspan x="10" y="1210"></tspan>

<tspan x="10" y="1226">2019-10-09 16:13:06 -0500</tspan>

<tspan x="10" y="1242">- fix build-ci for bootstrap-lite, jslint-lite</tspan>

<tspan x="10" y="1258"></tspan>

<tspan x="10" y="1274">2019-10-09 15:39:52 -0500</tspan>

<tspan x="10" y="1290">- fix build-ci for bootstrap-lite, jslint-lite</tspan>

<tspan x="10" y="1306"></tspan>

<tspan x="10" y="1322">2019-10-09 15:21:04 -0500</tspan>

<tspan x="10" y="1338">- fix build-ci for bootstrap-lite, jslint-lite</tspan>

<tspan x="10" y="1354"></tspan>

<tspan x="10" y="1370">2019-10-09 15:11:55 -0500</tspan>

<tspan x="10" y="1386">- fix build-ci for bootstrap-lite, jslint-lite</tspan>

<tspan x="10" y="1402"></tspan>

<tspan x="10" y="1418">2019-10-09 14:59:39 -0500</tspan>

<tspan x="10" y="1434">- fix build-ci for bootstrap-lite, jslint-lite</tspan>

<tspan x="10" y="1450"></tspan>

<tspan x="10" y="1466">2019-10-09 14:30:13 -0500</tspan>

<tspan x="10" y="1482">- fix build-ci for bootstrap-lite, jslint-lite</tspan>

<tspan x="10" y="1498"></tspan>

<tspan x="10" y="1514">2019-10-09 13:36:25 -0500</tspan>

<tspan x="10" y="1530">- fix build-ci for npm-package jslint-lite</tspan>

<tspan x="10" y="1546"></tspan>

<tspan x="10" y="1562">2019-10-09 17:37:03 +0000</tspan>

<tspan x="10" y="1578">ln-f</tspan>

<tspan x="10" y="1594"></tspan>

<tspan x="10" y="1610">2019-10-09 12:17:59 -0500</tspan>

<tspan x="10" y="1626">[npm publish] - npm publish 2019.10.8</tspan>

<tspan x="10" y="1642">- polyfill String.trimEnd and String.trimStart for edge-compatibility</tspan>

<tspan x="10" y="1658"></tspan>

<tspan x="10" y="1674">2019-09-26 10:44:30 -0500</tspan>

<tspan x="10" y="1690">- merge function local.valueOrEmptyXxx into local.coalesce</tspan>

<tspan x="10" y="1706">- remove db-lite dependency</tspan>

<tspan x="10" y="1722">- remove cheesy function local.uiAnimateShake</tspan>

<tspan x="10" y="1738">- rename hack-istanbul to hack-coverage</tspan>

<tspan x="10" y="1754">- merge function local.requireReadme into local._testCase_buildApidoc_default</tspan>

<tspan x="10" y="1770">- remove unused PORT_REPL from function local.replStart</tspan>

<tspan x="10" y="1786"></tspan>

<tspan x="10" y="1802">2019-09-24 14:21:45 -0500</tspan>

<tspan x="10" y="1818">- re-enable testCase_webpage_err</tspan>

<tspan x="10" y="1834">- update function local.templateRender with arithmetic operators</tspan>

<tspan x="10" y="1850">- update function local.testRunDefault's mock console.error</tspan>

<tspan x="10" y="1866"></tspan>

<tspan x="10" y="1882">2019-09-23 00:28:08 -0500</tspan>

<tspan x="10" y="1898">- jslint - update function jslintAndPrint's opt.lineOffset with opt.iiStart, opt.iiEnd</tspan>

<tspan x="10" y="1914"></tspan>

<tspan x="10" y="1930">2019-09-19 12:11:54 -0500</tspan>

<tspan x="10" y="1946">- replace functions local.taskCreate, local.taskCreateCached with event-emitter</tspan>

<tspan x="10" y="1962">- rename trimLeft to trimStart, and trimRight to trimEnd</tspan>

<tspan x="10" y="1978">- add isomorphic function local.querySelector, local.querySelectorAll</tspan>

<tspan x="10" y="1994">- merge function local.middlewareCacheControlLastModified into local.middlewareAssetsCached</tspan>

<tspan x="10" y="2010">- remove little-used http-server-zlib-compression</tspan>

<tspan x="10" y="2026"></tspan>

<tspan x="10" y="2042">2019-09-18 19:05:42 -0500</tspan>

<tspan x="10" y="2058">[npm publish] - npm publish 2019.9.16</tspan>

<tspan x="10" y="2074">- update function templateRender with counter #ii/</tspan>

<tspan x="10" y="2090">- rewrite function window.domOnEventDelegateDict.domOnEventDelegate's handle-evt-keyup to detect\</tspan>
<tspan x="10" y="2106"> change in input, textarea</tspan>

<tspan x="10" y="2122">- move utility2.testRunXxx evt-handlers from example.js to function testRunDefault</tspan>

<tspan x="10" y="2138">- streamline evt-handling in example.js</tspan>

<tspan x="10" y="2154">- rename assets.example.begin.js to assets.utility2.header.js</tspan>

<tspan x="10" y="2170"></tspan>

<tspan x="10" y="2186">2019-09-12 19:34:49 -0500</tspan>

<tspan x="10" y="2202">- add replace-string-operation to function templateRender</tspan>

<tspan x="10" y="2218">- merge polyfills into assets.example.begin.js</tspan>

<tspan x="10" y="2234">- rename bff and chunk to buf</tspan>

<tspan x="10" y="2250">- create function eventEmitterCreate</tspan>

<tspan x="10" y="2266">- merge class _http.IncomingMessage, _http.ServerResponse into function _http.request</tspan>

<tspan x="10" y="2282"></tspan>

<tspan x="10" y="2298">2019-09-09 02:15:02 -0500</tspan>

<tspan x="10" y="2314">- jslint - remove unexpected_a hacks</tspan>

<tspan x="10" y="2330">- jslint - reintroduce flag option.nomen to ignore bad_property_a</tspan>

<tspan x="10" y="2346">- jslint - migrate from let-declaration to var-declaration</tspan>

<tspan x="10" y="2362">- merge function local.streamReadAll into local.middlewareBodyRead</tspan>

<tspan x="10" y="2378">- remove little-used shell-function from lib.utility2.sh</tspan>

<tspan x="10" y="2394">- rename function assertThrow to assertOrThrow</tspan>

<tspan x="10" y="2410">- jslint - rename errText to errMsg</tspan>

<tspan x="10" y="2426"></tspan>

<tspan x="10" y="2442">2019-09-08 00:02:57 -0500</tspan>

<tspan x="10" y="2458">- inline lib.puppeteer.js into assets.app.js</tspan>

<tspan x="10" y="2474"></tspan>

<tspan x="10" y="2490">2019-09-07 07:53:12 -0500</tspan>

<tspan x="10" y="2506">[npm publish] - npm publish 2019.9.7</tspan>

<tspan x="10" y="2522">- revamp function local.semverCompare</tspan>

<tspan x="10" y="2538"></tspan>

<tspan x="10" y="2554">2019-09-07 01:24:41 -0500</tspan>

<tspan x="10" y="2570">- lint 80-char-column-limit and line-continuation in lib.utility2.sh</tspan>

<tspan x="10" y="2586">- remove electron dependency</tspan>

<tspan x="10" y="2602"></tspan>

<tspan x="10" y="2618">2019-09-04 23:08:09 -0500</tspan>

<tspan x="10" y="2634">- hack puppeteer to work in travis-ci</tspan>

<tspan x="10" y="2650"></tspan>

<tspan x="10" y="2666">2019-09-04 03:01:08 -0500</tspan>

<tspan x="10" y="2682">- migrate browser-testing from electron to headless-chromium</tspan>

<tspan x="10" y="2698"></tspan>

<tspan x="10" y="2714">2019-09-04 02:52:10 -0500</tspan>

<tspan x="10" y="2730">- streamline customizing README.md with custom-html-start and custom-html-end tags</tspan>

<tspan x="10" y="2746">- make utility2-object an EventEmitter</tspan>

<tspan x="10" y="2762">- update local.isBrowser check to include web-worker</tspan>

<tspan x="10" y="2778">- disable testCase_buildApidoc_default during npm test, to make it run faster</tspan>

<tspan x="10" y="2794">- add file raw.puppeteer.js</tspan>

<tspan x="10" y="2810"></tspan>

<tspan x="10" y="2826">2019-09-01 21:00:50 -0500</tspan>

<tspan x="10" y="2842">- remove shell-function shBaseInstallLinode</tspan>

<tspan x="10" y="2858"></tspan>

<tspan x="10" y="2874">2019-09-01 20:59:19 -0500</tspan>

<tspan x="10" y="2890">- replace arguments with ...argList</tspan>

<tspan x="10" y="2906">- add shell-function shRawJsFetch</tspan>

<tspan x="10" y="2922">- rename rm -fr to rm -rf</tspan>

<tspan x="10" y="2938">- revamp function local.ajaxProgressUpdate with window.domOnEventAjaxProgressUpdate</tspan>

<tspan x="10" y="2954">- cleanup globalThis</tspan>

<tspan x="10" y="2970">- jslint - remove ternary-operator/newline comment preceding bra</tspan>

<tspan x="10" y="2986"></tspan>

<tspan x="10" y="3002">2019-08-22 12:19:45 -0500</tspan>

<tspan x="10" y="3018">[npm publish] - npm publish 2019.8.21</tspan>

</text>
</svg>
