<svg height="6062" width="720" xmlns="http://www.w3.org/2000/svg">
<rect height="6062" fill="#555" width="720"></rect>
<text fill="#7f7" font-family="Courier New" font-size="12" xml:space="preserve">
<tspan x="10" y="26">2020-06-02 12:15:15 -0500</tspan>

<tspan x="10" y="42">[npm publish] - npm publish 2020.5.31</tspan>

<tspan x="10" y="58">- update file raw.istanbul.js</tspan>

<tspan x="10" y="74">- remove excessive "the" from comments</tspan>

<tspan x="10" y="90">- remove build-process for css-file</tspan>

<tspan x="10" y="106">- replace function local.objectSetDefault with objectAssignDefault</tspan>

<tspan x="10" y="122">- replace process.cwd() with path.resolve()</tspan>

<tspan x="10" y="138">- rename shell-function shPackageJsonVersionUpdate to shPackageJsonVersionIncrement</tspan>

<tspan x="10" y="154">- remove functions</tspan>

<tspan x="10" y="170">    functionOrNop,</tspan>

<tspan x="10" y="186">    local.querySelector,</tspan>

<tspan x="10" y="202">    local.querySelectorAll,</tspan>

<tspan x="10" y="218">    middlewareForwardProxy,</tspan>

<tspan x="10" y="234">    onTimeout,</tspan>

<tspan x="10" y="250">    profile,</tspan>

<tspan x="10" y="266">    profileSync,</tspan>

<tspan x="10" y="282">    semverCompare,</tspan>

<tspan x="10" y="298">    serverRespondCors,</tspan>

<tspan x="10" y="314">- replace function fsReadFileOrEmptyStringSync with fsReadFileOrDefaultSync</tspan>

<tspan x="10" y="330">- remove dependency to file lib.swgg.js</tspan>

<tspan x="10" y="346">- inline object local.contentTypeDict</tspan>

<tspan x="10" y="362">- istanbul - inline function templateRender</tspan>

<tspan x="10" y="378"></tspan>

<tspan x="10" y="394">2020-05-25 23:35:44 -0500</tspan>

<tspan x="10" y="410">[npm publish] - npm publish 2020.5.25</tspan>

<tspan x="10" y="426">- istanbul - rename __coverageCodeDict__ to __coverageInclude__</tspan>

<tspan x="10" y="442">- istanbul - rewrite function coverageReportCreate</tspan>

<tspan x="10" y="458"></tspan>

<tspan x="10" y="474">2020-05-25 12:08:55 -0500</tspan>

<tspan x="10" y="490">[npm publish] - npm publish 2020.5.20</tspan>

<tspan x="10" y="506">- jslint - add debug-option to pring stack-trace of first warning</tspan>

<tspan x="10" y="522">- update shell-functions shCryptoTravisDecrypt, shCryptoTravisEncrypt</tspan>

<tspan x="10" y="538">- jslint - prefer undefined over null in file lib.jslint.js</tspan>

<tspan x="10" y="554">- jslint - validate sort nested switch-statements</tspan>

<tspan x="10" y="570">- update to jslint v2020.03.28</tspan>

<tspan x="10" y="586">- update shell-function shRawLibFetch with check validating all replacement-expressions were use\</tspan>
<tspan x="10" y="602">d</tspan>

<tspan x="10" y="618"></tspan>

<tspan x="10" y="634">2020-03-17 02:03:28 -0500</tspan>

<tspan x="10" y="650">[npm publish] - npm publish 2020.3.17</tspan>

<tspan x="10" y="666">- add modal-support to function window.domOnEventAjaxProgressUpdate</tspan>

<tspan x="10" y="682">- update shell-function shRawLibFetch to accept footer after file-none</tspan>

<tspan x="10" y="698">- un-rename errDefault to errorDefault</tspan>

<tspan x="10" y="714">- remove function errorMessagePrepend</tspan>

<tspan x="10" y="730">- rename message to msg</tspan>

<tspan x="10" y="746">- rename text to str</tspan>

<tspan x="10" y="762">- update shell-function shRawLibFetch to apply diff</tspan>

<tspan x="10" y="778">- add function promisify</tspan>

<tspan x="10" y="794">- update function httpFetch with abort-handling</tspan>

<tspan x="10" y="810">- update function shRawLibFetch to inline-fetch resources to raw.xxx.js</tspan>

<tspan x="10" y="826">- add function httpFetch using fetch-api and promises</tspan>

<tspan x="10" y="842">- remove polyfills Array.p.flat, Array.p.flatMap, TextDecoder, TextEncoder</tspan>

<tspan x="10" y="858">- add workaround for nodejs v12 bug - https://github.com/libuv/libuv/issues/2587</tspan>

<tspan x="10" y="874">- add function stringLineCount</tspan>

<tspan x="10" y="890">- simplify globalThis polyfill</tspan>

<tspan x="10" y="906"></tspan>

<tspan x="10" y="922">2020-02-17 11:33:56 -0600</tspan>

<tspan x="10" y="938">[npm publish] - npm publish 2020.2.17</tspan>

<tspan x="10" y="954">- remove npm-package elasticsearch-lite in docker-image</tspan>

<tspan x="10" y="970">- upgrade docker-image to node v12</tspan>

<tspan x="10" y="986">- rename var option2 to opt2</tspan>

<tspan x="10" y="1002">- add wasm mimetype</tspan>

<tspan x="10" y="1018">- update jslint to v2020.1.17</tspan>

<tspan x="10" y="1034">- update csslint to v2018.2.25</tspan>

<tspan x="10" y="1050">- add runme-feature in test.js</tspan>

<tspan x="10" y="1066">- rearrange todo &lt;-&gt; changelog</tspan>

<tspan x="10" y="1082">- update function middlewareFileServer to serve files in win32 env</tspan>

<tspan x="10" y="1098"></tspan>

<tspan x="10" y="1114">2020-01-20 11:35:07 -0600</tspan>

<tspan x="10" y="1130">[npm publish] - npm publish 2019.1.20</tspan>

<tspan x="10" y="1146">- rename counter to cnt</tspan>

<tspan x="10" y="1162">- test String.p.indexOf using only 0</tspan>

<tspan x="10" y="1178">- replace uglifyjs-lite with terser-lite (v2.8.29)</tspan>

<tspan x="10" y="1194">- remove sjcl-dependency in favor of subtle-crypto</tspan>

<tspan x="10" y="1210"></tspan>

<tspan x="10" y="1226">2019-11-25 07:15:30 +0000</tspan>

<tspan x="10" y="1242">[npm publish] - npm publish 2019.11.24</tspan>

<tspan x="10" y="1258">- jslint - autofix json with jslintStringifyOrdered</tspan>

<tspan x="10" y="1274">- jslint - revert to using jslint (instead of JSON.parse) to lint json</tspan>

<tspan x="10" y="1290">- add function base64urlFromBuffer</tspan>

<tspan x="10" y="1306">- update function base64ToBuffer with base64url support</tspan>

<tspan x="10" y="1322">- update function shRawLibFetch for https://github.com/panva/jose</tspan>

<tspan x="10" y="1338"></tspan>

<tspan x="10" y="1354">2019-10-16 19:54:33 -0500</tspan>

<tspan x="10" y="1370">- update feature flag $npm_package_private</tspan>

<tspan x="10" y="1386">- add file .CRYPTO_AES_SH_ENCRYPTED_kaizhu256</tspan>

<tspan x="10" y="1402">- rename shell-function shRawJsXxx to shRawLibXxx</tspan>

<tspan x="10" y="1418">- jslint - add bigint support</tspan>

<tspan x="10" y="1434">- remove asset assets.utility2.base.html</tspan>

<tspan x="10" y="1450">- fix build-ci for bootstrap-lite, jslint-lite</tspan>

<tspan x="10" y="1466"></tspan>

<tspan x="10" y="1482">2019-10-09 12:17:59 -0500</tspan>

<tspan x="10" y="1498">[npm publish] - npm publish 2019.10.8</tspan>

<tspan x="10" y="1514">- polyfill String.trimEnd and String.trimStart for edge-compatibility</tspan>

<tspan x="10" y="1530"></tspan>

<tspan x="10" y="1546">2019-09-26 10:44:30 -0500</tspan>

<tspan x="10" y="1562">- merge function local.valueOrEmptyXxx into local.coalesce</tspan>

<tspan x="10" y="1578">- remove db-lite dependency</tspan>

<tspan x="10" y="1594">- remove cheesy function local.uiAnimateShake</tspan>

<tspan x="10" y="1610">- rename hack-istanbul to hack-coverage</tspan>

<tspan x="10" y="1626">- merge function local.requireReadme into local._testCase_buildApidoc_default</tspan>

<tspan x="10" y="1642">- remove unused PORT_REPL from function local.replStart</tspan>

<tspan x="10" y="1658"></tspan>

<tspan x="10" y="1674">2019-09-24 14:21:45 -0500</tspan>

<tspan x="10" y="1690">- re-enable testCase_webpage_err</tspan>

<tspan x="10" y="1706">- update function local.templateRender with arithmetic operators</tspan>

<tspan x="10" y="1722">- update function local.testRunDefault's mock console.error</tspan>

<tspan x="10" y="1738"></tspan>

<tspan x="10" y="1754">2019-09-23 00:28:08 -0500</tspan>

<tspan x="10" y="1770">- jslint - update function jslintAndPrint's opt.lineOffset with opt.iiStart, opt.iiEnd</tspan>

<tspan x="10" y="1786"></tspan>

<tspan x="10" y="1802">2019-09-19 12:11:54 -0500</tspan>

<tspan x="10" y="1818">- replace functions local.taskCreate, local.taskCreateCached with event-emitter</tspan>

<tspan x="10" y="1834">- rename trimLeft to trimStart, and trimRight to trimEnd</tspan>

<tspan x="10" y="1850">- add isomorphic function local.querySelector, local.querySelectorAll</tspan>

<tspan x="10" y="1866">- merge function local.middlewareCacheControlLastModified into local.middlewareAssetsCached</tspan>

<tspan x="10" y="1882">- remove little-used http-server-zlib-compression</tspan>

<tspan x="10" y="1898"></tspan>

<tspan x="10" y="1914">2019-09-18 19:05:42 -0500</tspan>

<tspan x="10" y="1930">[npm publish] - npm publish 2019.9.16</tspan>

<tspan x="10" y="1946">- update function templateRender with counter #ii/</tspan>

<tspan x="10" y="1962">- rewrite function window.domOnEventDelegateDict.domOnEventDelegate's handle-evt-keyup to detect\</tspan>
<tspan x="10" y="1978"> change in input, textarea</tspan>

<tspan x="10" y="1994">- move utility2.testRunXxx evt-handlers from example.js to function testRunDefault</tspan>

<tspan x="10" y="2010">- streamline evt-handling in example.js</tspan>

<tspan x="10" y="2026">- rename assets.example.begin.js to assets.utility2.header.js</tspan>

<tspan x="10" y="2042"></tspan>

<tspan x="10" y="2058">2019-09-12 19:34:49 -0500</tspan>

<tspan x="10" y="2074">- add replace-string-operation to function templateRender</tspan>

<tspan x="10" y="2090">- merge polyfills into assets.example.begin.js</tspan>

<tspan x="10" y="2106">- rename bff and chunk to buf</tspan>

<tspan x="10" y="2122">- create function eventEmitterCreate</tspan>

<tspan x="10" y="2138">- merge class _http.IncomingMessage, _http.ServerResponse into function _http.request</tspan>

<tspan x="10" y="2154"></tspan>

<tspan x="10" y="2170">2019-09-09 02:15:02 -0500</tspan>

<tspan x="10" y="2186">- jslint - remove unexpected_a hacks</tspan>

<tspan x="10" y="2202">- jslint - reintroduce flag option.nomen to ignore bad_property_a</tspan>

<tspan x="10" y="2218">- jslint - migrate from let-declaration to var-declaration</tspan>

<tspan x="10" y="2234">- merge function local.streamReadAll into local.middlewareBodyRead</tspan>

<tspan x="10" y="2250">- remove little-used shell-function from lib.utility2.sh</tspan>

<tspan x="10" y="2266">- rename function assertThrow to assertOrThrow</tspan>

<tspan x="10" y="2282">- jslint - rename errText to errMsg</tspan>

<tspan x="10" y="2298"></tspan>

<tspan x="10" y="2314">2019-09-08 00:02:57 -0500</tspan>

<tspan x="10" y="2330">- inline lib.puppeteer.js into assets.app.js</tspan>

<tspan x="10" y="2346"></tspan>

<tspan x="10" y="2362">2019-09-07 07:53:12 -0500</tspan>

<tspan x="10" y="2378">[npm publish] - npm publish 2019.9.7</tspan>

<tspan x="10" y="2394">- revamp function local.semverCompare</tspan>

<tspan x="10" y="2410"></tspan>

<tspan x="10" y="2426">2019-09-07 01:24:41 -0500</tspan>

<tspan x="10" y="2442">- lint 80-char-column-limit and line-continuation in lib.utility2.sh</tspan>

<tspan x="10" y="2458">- remove electron dependency</tspan>

<tspan x="10" y="2474"></tspan>

<tspan x="10" y="2490">2019-09-04 23:08:09 -0500</tspan>

<tspan x="10" y="2506">- hack puppeteer to work in travis-ci</tspan>

<tspan x="10" y="2522"></tspan>

<tspan x="10" y="2538">2019-09-04 03:01:08 -0500</tspan>

<tspan x="10" y="2554">- migrate browser-testing from electron to headless-chromium</tspan>

<tspan x="10" y="2570"></tspan>

<tspan x="10" y="2586">2019-09-04 02:52:10 -0500</tspan>

<tspan x="10" y="2602">- streamline customizing README.md with custom-html-start and custom-html-end tags</tspan>

<tspan x="10" y="2618">- make utility2-object an EventEmitter</tspan>

<tspan x="10" y="2634">- update local.isBrowser check to include web-worker</tspan>

<tspan x="10" y="2650">- disable testCase_buildApidoc_default during npm test, to make it run faster</tspan>

<tspan x="10" y="2666">- add file raw.puppeteer.js</tspan>

<tspan x="10" y="2682"></tspan>

<tspan x="10" y="2698">2019-09-01 21:00:50 -0500</tspan>

<tspan x="10" y="2714">- remove shell-function shBaseInstallLinode</tspan>

<tspan x="10" y="2730"></tspan>

<tspan x="10" y="2746">2019-09-01 20:59:19 -0500</tspan>

<tspan x="10" y="2762">- replace arguments with ...argList</tspan>

<tspan x="10" y="2778">- add shell-function shRawJsFetch</tspan>

<tspan x="10" y="2794">- rename rm -fr to rm -rf</tspan>

<tspan x="10" y="2810">- revamp function local.ajaxProgressUpdate with window.domOnEventAjaxProgressUpdate</tspan>

<tspan x="10" y="2826">- cleanup globalThis</tspan>

<tspan x="10" y="2842">- jslint - remove ternary-operator/newline comment preceding bra</tspan>

<tspan x="10" y="2858"></tspan>

<tspan x="10" y="2874">2019-08-22 12:19:45 -0500</tspan>

<tspan x="10" y="2890">[npm publish] - npm publish 2019.8.21</tspan>

<tspan x="10" y="2906"></tspan>

<tspan x="10" y="2922">2019-08-21 02:01:01 -0500</tspan>

<tspan x="10" y="2938">- jslint - remove allow-method-chain-newline hack</tspan>

<tspan x="10" y="2954">- jslint - remove autofix - autofix-js-braket - remove leading-whitespace from bra</tspan>

<tspan x="10" y="2970"></tspan>

<tspan x="10" y="2986">2019-08-19 10:46:30 -0500</tspan>

<tspan x="10" y="3002">- jslint - internalize hacks to function warn_at_extra</tspan>

<tspan x="10" y="3018">- jslint - unhack const, let from var</tspan>

<tspan x="10" y="3034">- jslint - upgrade to jslint edition 2019.8.3</tspan>

<tspan x="10" y="3050">- jslint - add async/await support</tspan>

<tspan x="10" y="3066"></tspan>

<tspan x="10" y="3082">2019-08-18 14:09:22 -0500</tspan>

<tspan x="10" y="3098">- rename coverage-hack to hack-istanbul, gotoNext to gotoNext, gotoState to gotoState, jslint-ha\</tspan>
<tspan x="10" y="3114">ck to hack-jslint</tspan>

<tspan x="10" y="3130"></tspan>

<tspan x="10" y="3146">2019-08-18 12:45:09 -0500</tspan>

<tspan x="10" y="3162">- istanbul - add cli-command report</tspan>

<tspan x="10" y="3178">- add files lib.puppeteer.js, raw.puppeteer.js</tspan>

<tspan x="10" y="3194"></tspan>

<tspan x="10" y="3210">2019-08-17 18:30:46 +0000</tspan>

<tspan x="10" y="3226">- istanbul - fix pragma-istanbul-ignore in acorn</tspan>

<tspan x="10" y="3242"></tspan>

<tspan x="10" y="3258">2019-08-17 17:29:10 +0000</tspan>

<tspan x="10" y="3274">[npm publish] - npm publish 2019.8.12</tspan>

<tspan x="10" y="3290"></tspan>

<tspan x="10" y="3306">2019-08-16 01:01:49 -0500</tspan>

<tspan x="10" y="3322">- istanbul - add env-var-state $npm_config_mode_coverage=node_modules</tspan>

<tspan x="10" y="3338">- istanbul - switch parser from esprima to acorn v6.3.0</tspan>

<tspan x="10" y="3354"></tspan>

<tspan x="10" y="3370">2019-08-13 01:32:00 -0500</tspan>

<tspan x="10" y="3386">- istanbul - upgrade to escodegen v1.12.0</tspan>

<tspan x="10" y="3402"></tspan>

<tspan x="10" y="3418">2019-08-13 05:29:50 +0000</tspan>

<tspan x="10" y="3434">- istanbul - upgrade to estools/lib/code.js v2.0.1</tspan>

<tspan x="10" y="3450"></tspan>

<tspan x="10" y="3466">2019-08-12 23:16:20 -0500</tspan>

<tspan x="10" y="3482">- istanbul - upgrade to esprima v4.0.1</tspan>

<tspan x="10" y="3498"></tspan>

<tspan x="10" y="3514">2019-08-12 03:03:12 -0500</tspan>

<tspan x="10" y="3530">- shorten name event to evt</tspan>

<tspan x="10" y="3546">- build-ci - use headless-chromium for screenshot-automation with shell-function shScreenCapture</tspan>

<tspan x="10" y="3562"></tspan>

<tspan x="10" y="3578">2019-08-11 05:01:00 -0500</tspan>

<tspan x="10" y="3594">[npm publish] - npm publish 2019.8.11</tspan>

<tspan x="10" y="3610"></tspan>

<tspan x="10" y="3626">2019-08-10 21:21:28 -0500</tspan>

<tspan x="10" y="3642">- csslint - unminify csslint v1.0.5</tspan>

<tspan x="10" y="3658">- istanbul - unminify files and upgrade to estravers.js v4.2.0</tspan>

<tspan x="10" y="3674"></tspan>

<tspan x="10" y="3690">2019-08-10 01:12:34 -0500</tspan>

<tspan x="10" y="3706">- jslint - refactor files to 80 chr column-limit</tspan>

<tspan x="10" y="3722"></tspan>

<tspan x="10" y="3738">2019-08-06 08:25:55 -0500</tspan>

<tspan x="10" y="3754">- csslint - reset sorted-line with \n\n instead of macro /* validateLineSortedReset */</tspan>

<tspan x="10" y="3770">- add env var $npm_config_mode_inspect, $npm_config_mode_winpty</tspan>

<tspan x="10" y="3786">- disable travis-ci cache</tspan>

<tspan x="10" y="3802">- rename function local.domElementRender to local.domFragmentRender</tspan>

<tspan x="10" y="3818">- rename var request to req, response to res, local.errorDefault to local.errDefault, error to e\</tspan>
<tspan x="10" y="3834">rr, option to opt, event to evt, nextMiddleware to next</tspan>

<tspan x="10" y="3850"></tspan>

<tspan x="10" y="3866">2019-08-03 20:46:59 -0500</tspan>

<tspan x="10" y="3882">- jslint-autofix - split ([aa, bb]) into multiple-lines</tspan>

<tspan x="10" y="3898"></tspan>

<tspan x="10" y="3914">2019-08-03 19:21:40 -0500</tspan>

<tspan x="10" y="3930">- add partial support for git-for-windows/MINGW env</tspan>

<tspan x="10" y="3946">- update to jslint commit ea8401c6a72e21d66f49766af692b09e81d7a79f</tspan>

<tspan x="10" y="3962">- csslint - validateLineSortedReset @media</tspan>

<tspan x="10" y="3978">- rename var event to evt</tspan>

<tspan x="10" y="3994">- rename var nextMiddleware to next</tspan>

<tspan x="10" y="4010"></tspan>

<tspan x="10" y="4026">2019-08-02 01:46:14 -0500</tspan>

<tspan x="10" y="4042">[npm publish] - npm publish 2019.8.1</tspan>

<tspan x="10" y="4058">- unminify file raw.istanbul.js</tspan>

<tspan x="10" y="4074">- update file lib.sjcl.js to v1.0.8</tspan>

<tspan x="10" y="4090">- add polyfill for Array.p.flat() and Array.p.flatMap()</tspan>

<tspan x="10" y="4106">- add function dateGetWeekOfYear()</tspan>

<tspan x="10" y="4122">- .vimrc - set ffs=unix,dos</tspan>

<tspan x="10" y="4138">- add winpty support</tspan>

<tspan x="10" y="4154">- rename dir /src/ to /Documents/</tspan>

<tspan x="10" y="4170">- add shell-functions shGitInitBase, shGitLsTreeSort, shMkisofs</tspan>

<tspan x="10" y="4186"></tspan>

<tspan x="10" y="4202">2019-04-08 21:19:26 -0500</tspan>

<tspan x="10" y="4218">[npm publish] - npm publish 2019.4.9</tspan>

<tspan x="10" y="4234">- add shims for TextDecoder, TextEncoder</tspan>

<tspan x="10" y="4250">- shorten name element to elem, option to opt, error to err, request to req, response to res</tspan>

<tspan x="10" y="4266">- add file lib.terser.js</tspan>

<tspan x="10" y="4282">- delist uglifyjs-lite from shUtility2Dependents</tspan>

<tspan x="10" y="4298"></tspan>

<tspan x="10" y="4314">2019-02-27 23:10:41 -0600</tspan>

<tspan x="10" y="4330">[npm publish] - npm publish 2019.2.28</tspan>

<tspan x="10" y="4346">- split function domOnEventDelegate into domOnEventDelegate, domOnEventResetOutput</tspan>

<tspan x="10" y="4362">- add function local.dateGetWeek</tspan>

<tspan x="10" y="4378">- merge shell-functions utility2.customOrgRepoCreate, shCustomOrgRepoCreate into shTravisRepoCre\</tspan>
<tspan x="10" y="4394">ate</tspan>

<tspan x="10" y="4410">- replace circurlarList with circularSet</tspan>

<tspan x="10" y="4426">- jslint - merge function local.jslintUtility20 into local.jslintAndPrint</tspan>

<tspan x="10" y="4442">- update shell-function shHttpFileServer to be windows-compatible</tspan>

<tspan x="10" y="4458">- jslint - simplify lint and autofix for json</tspan>

<tspan x="10" y="4474">- bug - fix unintended indent-autofix for jslint-ignore in demux and mux</tspan>

<tspan x="10" y="4490">- jslint-autofix in separate process</tspan>

<tspan x="10" y="4506">- add functions local.dateUtcFromLocal, local.dateUtcToLocal, local.domDatasetDecode, local.domD\</tspan>
<tspan x="10" y="4522">atasetEncode</tspan>

<tspan x="10" y="4538">- update function templateRender with functions padEnd and padStart</tspan>

<tspan x="10" y="4554">- add repl-command $ ll</tspan>

<tspan x="10" y="4570">- auto-git-diff when npm_config_mode_restart=1</tspan>

<tspan x="10" y="4586">- jslint - add function jslintAndPrintDir</tspan>

<tspan x="10" y="4602">- swgg - add input-type=number</tspan>

<tspan x="10" y="4618">- jslint - lint json with JSON.parse instead of jslint</tspan>

<tspan x="10" y="4634">- revamp ui event-handling with window.domOnEventDelegateDict</tspan>

<tspan x="10" y="4650">- fix function buildReadme's custom-case</tspan>

<tspan x="10" y="4666">- remove unused-functions objectLiteralize and objectTraverse</tspan>

<tspan x="10" y="4682"></tspan>

<tspan x="10" y="4698">2018-12-30 02:08:04 -0600</tspan>

<tspan x="10" y="4714">[npm publish] - npm publish 2018.12.30</tspan>

<tspan x="10" y="4730">- jslint - open-form - document.querySelector(</tspan>

<tspan x="10" y="4746">- jslint - validateLineSorted - switch-statement</tspan>

<tspan x="10" y="4762">- split function jslintAndPrint -&gt; jslintAndPrint, jslintAutofix, jslintUtility2</tspan>

<tspan x="10" y="4778">- rename function base64ToString -&gt; base64ToUtf8</tspan>

<tspan x="10" y="4794">- rename function bufferToString -&gt; bufferToUtf8</tspan>

<tspan x="10" y="4810">- replace function local.bufferCreate -&gt; new TextEncoder().encode</tspan>

<tspan x="10" y="4826">- remove unused function local.ajaxCrawl</tspan>

<tspan x="10" y="4842">- add function local.objectAssignDefault</tspan>

<tspan x="10" y="4858">- rename var options -&gt; option</tspan>

<tspan x="10" y="4874">- istanbul - add clickable id-fragment to lines in html-coverage</tspan>

<tspan x="10" y="4890">- .vimrc - add functions MyStringifyRegion, MyRename</tspan>

<tspan x="10" y="4906"></tspan>

<tspan x="10" y="4922">2018-12-08 04:42:22 -0600</tspan>

<tspan x="10" y="4938">[npm publish] - npm publish 2018.12.8</tspan>

<tspan x="10" y="4954">- upgrade to jslint commit-de413767154641f490d6e96185e525255cca5f7e (v2018.11.14)</tspan>

<tspan x="10" y="4970">- remove customOrg code</tspan>

<tspan x="10" y="4986">- remove assetsDict[/assets.readmeCustomOrg.npmdoc.template.md], local.assetsDict[/assets.readme\</tspan>
<tspan x="10" y="5002">CustomOrg.npmtest.template.md]</tspan>

<tspan x="10" y="5018"></tspan>

<tspan x="10" y="5034">2018-11-15 00:47:46 +0800</tspan>

<tspan x="10" y="5050">[npm publish] - npm publish 2018.11.14</tspan>

<tspan x="10" y="5066">- jslint - upgrade to commit-813d1fb157076ef9df1d773a084c971705e57a84 (v2018.10.26)</tspan>

<tspan x="10" y="5082">- jslint - replace ",$s/^ *".*"\n *+ ".*"\(\n *+ ".*"\)*/(&amp;)/gc"</tspan>

<tspan x="10" y="5098">- jslint - unexpected_a \(</tspan>

<tspan x="10" y="5114">- jslint - replace instanceof -&gt; Object.prototype.toString.call</tspan>

<tspan x="10" y="5130">- jslint - replace var self -&gt; that</tspan>

<tspan x="10" y="5146">- jslint - unconst and unlet</tspan>

<tspan x="10" y="5162">- jslint - prioritize fatal jslint-errors</tspan>

<tspan x="10" y="5178">- jslint - merge function jslintAndPrintConditional -&gt; jslintAndPrint</tspan>

<tspan x="10" y="5194">- jslint-autofix - braket</tspan>

<tspan x="10" y="5210">- jslint-autofix - parenthesize open-statements</tspan>

<tspan x="10" y="5226">- jslint-autofix - prefix-operator</tspan>

<tspan x="10" y="5242">- jslint-autofix - parenthesize rgx</tspan>

<tspan x="10" y="5258">- jslint-autofix - local-function</tspan>

<tspan x="10" y="5274">- jslint-autofix - add autofix button to live web-demo</tspan>

<tspan x="10" y="5290">- jslint-autofix - embedded ```javascript```, &lt;\script\&gt;, &lt;\style\&gt;</tspan>

<tspan x="10" y="5306">- jslint-autofix - tweak to run before JSLint in function jslintAndPrint</tspan>

<tspan x="10" y="5322">- remove shell-function shBuildAppSwgg0</tspan>

<tspan x="10" y="5338">- rate-limit keyup events</tspan>

<tspan x="10" y="5354">- add properties functionAllDict, functionBaseDict</tspan>

<tspan x="10" y="5370">- replace function local.assert -&gt; local.assertThrow</tspan>

<tspan x="10" y="5386">- replace function local.echo -&gt; local.identity</tspan>

<tspan x="10" y="5402">- globalThis - polyfill https://github.com/tc39/proposal-global</tspan>

<tspan x="10" y="5418">- merge example.js event-handling into function uiEventDelegate</tspan>

<tspan x="10" y="5434">- remove unused function objectKeysTypeOf</tspan>

<tspan x="10" y="5450"></tspan>

<tspan x="10" y="5466">2018-09-30 21:03:03 +0700</tspan>

<tspan x="10" y="5482">[npm publish] - npm publish 2018.9.29</tspan>

<tspan x="10" y="5498">- jslint - merge function jslintAutofix -&gt; jslintAndPrint</tspan>

<tspan x="10" y="5514">- jslint - bug-workaround - v8 tail-call issue</tspan>

<tspan x="10" y="5530">- jslint - merge directive /*jslint ...*/ -&gt; /* jslint utility2:true */</tspan>

<tspan x="10" y="5546">- jslint - multivar - apply vim-command ",$s/^\( *\)\(\(var\) .*\), \([^\\]*\)\(\\n\\\)*$/\1\2;\\</tspan>
<tspan x="10" y="5562">5\r\1\3 \4\5/gc" to file lib.xxx.js</tspan>

<tspan x="10" y="5578">- jslint - prefix-operator - apply vim-command ",$s/ \(&amp;&amp;\|+\|||\)\n\( *\)/\r\2\1 /gc" to file l\</tspan>
<tspan x="10" y="5594">ib.xxx.js</tspan>

<tspan x="10" y="5610">- jslint - revamp indent</tspan>

<tspan x="10" y="5626">- restore const and let expressions in jslint.js</tspan>

<tspan x="10" y="5642">- update jslint-function jslintAndPrint to ignore too_long-warnings in comments and regexp,</tspan>

<tspan x="10" y="5658">- jslint-autofix whitespace, double-quote, and regexp for files: lib.xxx.js, test.js</tspan>

<tspan x="10" y="5674">- refactor files with new jslint (v2018-09-17)</tspan>

<tspan x="10" y="5690">- replace unused function-arguments with ignore</tspan>

<tspan x="10" y="5706">- update uglify-function uglify to escape non-ascii characters: (/[ ---￿]/)</tspan>

<tspan x="10" y="5722">- add files raw.istanbul.js, raw.jslint.js, raw.uglify.js</tspan>

<tspan x="10" y="5738">- rename function stringCustomizeFromToRgx -&gt; stringMerge</tspan>

<tspan x="10" y="5754">- update function testRunDefault to show timeElapsed in all logs and periodically print out pend\</tspan>
<tspan x="10" y="5770">ing testCases</tspan>

<tspan x="10" y="5786">- add shell-function shGitBranchPush, shGitBranchRename, shGithubDateCommitted</tspan>

<tspan x="10" y="5802">- migrate to new jslint (2018-09)</tspan>

<tspan x="10" y="5818"></tspan>

<tspan x="10" y="5834">2018-09-08 21:08:33 +0700</tspan>

<tspan x="10" y="5850">[npm publish] - prepare for jslint v2018.05.14</tspan>

<tspan x="10" y="5866">- add shell-command shGitDateCommitted, shDiffRaw</tspan>

<tspan x="10" y="5882">- add file lib.istanbul.raw.js, lib.jslint.raw.js, lib.marked.raw.js, lib.uglifyjs.raw.js</tspan>

<tspan x="10" y="5898">- update function fsReadFileOrEmptyStringSync with 'json' options to auto JSON.parse file or ret\</tspan>
<tspan x="10" y="5914">urn null</tspan>

<tspan x="10" y="5930">- update function buildLib to include top-level comment-description</tspan>

<tspan x="10" y="5946">- rename template assetsDict['/assets.lib.template.js'] -&gt; assetsDict['/assets.my\_app.template.\</tspan>
<tspan x="10" y="5962">js']</tspan>

<tspan x="10" y="5978">- update function testRunDefault to suppress console.error in coverage-mode</tspan>

<tspan x="10" y="5994">- rename response.headers -&gt; response.responseHeaders</tspan>

<tspan x="10" y="6010">- make browser-mocked client-request &lt;-&gt; server-response asynchronous</tspan>

<tspan x="10" y="6026">- revamp Buffer helper-functions</tspan>

<tspan x="10" y="6042">- merge nodejs-mock of XMLHttpRequest into function ajax</tspan>

</text>
</svg>
