<svg height="3310px" width="720px" xmlns="http://www.w3.org/2000/svg">
<rect height="3310px" fill="#555" width="720px"></rect>
<text fill="#7f7" font-family="Consolas, Menlo, monospace" font-size="12" xml:space="preserve">
<tspan x="10" y="26">2020-12-07 03:33:21 -0600</tspan>
<tspan x="10" y="42">- init shell-var \$CI_xxx in shell-function shCiInit instead of shCiMain</tspan>
<tspan x="10" y="58"></tspan>
<tspan x="10" y="74">2020-12-07 03:21:48 -0600</tspan>
<tspan x="10" y="90">fix.build</tspan>
<tspan x="10" y="106"></tspan>
<tspan x="10" y="122">2020-12-07 03:12:59 -0600</tspan>
<tspan x="10" y="138">fix.testreport</tspan>
<tspan x="10" y="154"></tspan>
<tspan x="10" y="170">2020-12-07 03:09:18 -0600</tspan>
<tspan x="10" y="186">fix.testreport</tspan>
<tspan x="10" y="202"></tspan>
<tspan x="10" y="218">2020-12-07 03:06:27 -0600</tspan>
<tspan x="10" y="234">- init shell-var \$CI_xxx in shell-function shCiInit instead of shCiMain</tspan>
<tspan x="10" y="250"></tspan>
<tspan x="10" y="266">2020-12-07 03:03:09 -0600</tspan>
<tspan x="10" y="282">- init shell-var \$CI_xxx in shell-function shCiInit instead of shCiMain</tspan>
<tspan x="10" y="298"></tspan>
<tspan x="10" y="314">2020-12-07 02:49:47 -0600</tspan>
<tspan x="10" y="330">- init shell-var \$CI_xxx in shell-function shCiInit instead of shCiMain</tspan>
<tspan x="10" y="346"></tspan>
<tspan x="10" y="362">2020-12-07 02:47:37 -0600</tspan>
<tspan x="10" y="378">- init shell-var \$CI_xxx in shell-function shCiInit instead of shCiMain</tspan>
<tspan x="10" y="394"></tspan>
<tspan x="10" y="410">2020-12-07 02:40:10 -0600</tspan>
<tspan x="10" y="426">screenshot.readmeEvalExampleSh</tspan>
<tspan x="10" y="442"></tspan>
<tspan x="10" y="458">2020-12-07 02:39:09 -0600</tspan>
<tspan x="10" y="474">inline</tspan>
<tspan x="10" y="490"></tspan>
<tspan x="10" y="506">2020-12-07 02:29:37 -0600</tspan>
<tspan x="10" y="522">exportVar</tspan>
<tspan x="10" y="538"></tspan>
<tspan x="10" y="554">2020-12-07 02:19:21 -0600</tspan>
<tspan x="10" y="570">readmeEval</tspan>
<tspan x="10" y="586"></tspan>
<tspan x="10" y="602">2020-12-07 02:11:53 -0600</tspan>
<tspan x="10" y="618">- remove shell-functions shBuildInsideDocker, shChromeSocks5, shNpmDeprecateAlias, shNpmPublishA\</tspan><tspan x="10" y="634">lias, shTravisRepoCreate, shTravisRepoTrigger</tspan>
<tspan x="10" y="650"></tspan>
<tspan x="10" y="666">2020-12-07 02:02:37 -0600</tspan>
<tspan x="10" y="682">shEnvSanitize</tspan>
<tspan x="10" y="698"></tspan>
<tspan x="10" y="714">2020-12-07 01:56:10 -0600</tspan>
<tspan x="10" y="730">fix.build</tspan>
<tspan x="10" y="746"></tspan>
<tspan x="10" y="762">2020-12-07 01:46:17 -0600</tspan>
<tspan x="10" y="778">fix.build</tspan>
<tspan x="10" y="794"></tspan>
<tspan x="10" y="810">2020-12-07 01:36:38 -0600</tspan>
<tspan x="10" y="826">fix.screenshot</tspan>
<tspan x="10" y="842"></tspan>
<tspan x="10" y="858">2020-12-07 01:35:32 -0600</tspan>
<tspan x="10" y="874">fix.screenshot</tspan>
<tspan x="10" y="890"></tspan>
<tspan x="10" y="906">2020-12-07 01:14:54 -0600</tspan>
<tspan x="10" y="922">cull.env</tspan>
<tspan x="10" y="938"></tspan>
<tspan x="10" y="954">2020-12-07 01:08:11 -0600</tspan>
<tspan x="10" y="970">- rename shBuildXxx to shCiXxx</tspan>
<tspan x="10" y="986"></tspan>
<tspan x="10" y="1002">2020-12-07 00:41:47 -0600</tspan>
<tspan x="10" y="1018">- rename shBuildXxx to shCiXxx</tspan>
<tspan x="10" y="1034"></tspan>
<tspan x="10" y="1050">2020-12-07 00:40:03 -0600</tspan>
<tspan x="10" y="1066">- rename shBuildXxx to shCiXxx</tspan>
<tspan x="10" y="1082"></tspan>
<tspan x="10" y="1098">2020-12-07 00:28:31 -0600</tspan>
<tspan x="10" y="1114">- rename shBuildXxx to shCiXxx</tspan>
<tspan x="10" y="1130"></tspan>
<tspan x="10" y="1146">2020-12-06 23:57:30 -0600</tspan>
<tspan x="10" y="1162">- rename shBuildXxx to shCiXxx</tspan>
<tspan x="10" y="1178"></tspan>
<tspan x="10" y="1194">2020-12-06 23:53:51 -0600</tspan>
<tspan x="10" y="1210">- rename shBuildXxx to shCiXxx</tspan>
<tspan x="10" y="1226"></tspan>
<tspan x="10" y="1242">2020-12-06 23:51:32 -0600</tspan>
<tspan x="10" y="1258">- rename shBuildXxx to shCiXxx</tspan>
<tspan x="10" y="1274"></tspan>
<tspan x="10" y="1290">2020-12-06 23:47:31 -0600</tspan>
<tspan x="10" y="1306">- rename shBuildXxx to shCiXxx</tspan>
<tspan x="10" y="1322"></tspan>
<tspan x="10" y="1338">2020-12-06 23:46:56 -0600</tspan>
<tspan x="10" y="1354">- rename shBuildXxx to shCiXxx</tspan>
<tspan x="10" y="1370"></tspan>
<tspan x="10" y="1386">2020-12-06 23:00:44 -0600</tspan>
<tspan x="10" y="1402">debug.env</tspan>
<tspan x="10" y="1418"></tspan>
<tspan x="10" y="1434">2020-12-06 22:59:17 -0600</tspan>
<tspan x="10" y="1450">revert</tspan>
<tspan x="10" y="1466"></tspan>
<tspan x="10" y="1482">2020-12-06 22:54:42 -0600</tspan>
<tspan x="10" y="1498">- rename env var \$GITHUB_FULLNAME to \$GITHUB_REPOSITORY</tspan>
<tspan x="10" y="1514"></tspan>
<tspan x="10" y="1530">2020-12-06 22:54:07 -0600</tspan>
<tspan x="10" y="1546">- rename env var \$GITHUB_FULLNAME to \$GITHUB_REPOSITORY</tspan>
<tspan x="10" y="1562"></tspan>
<tspan x="10" y="1578">2020-12-06 22:48:20 -0600</tspan>
<tspan x="10" y="1594">disable.travis</tspan>
<tspan x="10" y="1610"></tspan>
<tspan x="10" y="1626">2020-12-06 22:46:35 -0600</tspan>
<tspan x="10" y="1642">disable.publish</tspan>
<tspan x="10" y="1658"></tspan>
<tspan x="10" y="1674">2020-12-06 22:43:11 -0600</tspan>
<tspan x="10" y="1690">disable.publish</tspan>
<tspan x="10" y="1706"></tspan>
<tspan x="10" y="1722">2020-12-06 22:42:18 -0600</tspan>
<tspan x="10" y="1738">disable.comment</tspan>
<tspan x="10" y="1754"></tspan>
<tspan x="10" y="1770">2020-12-06 22:41:24 -0600</tspan>
<tspan x="10" y="1786">disable.comment</tspan>
<tspan x="10" y="1802"></tspan>
<tspan x="10" y="1818">2020-12-06 22:38:45 -0600</tspan>
<tspan x="10" y="1834">- pre - migrate from travis to github-actions</tspan>
<tspan x="10" y="1850"></tspan>
<tspan x="10" y="1866">2020-12-06 15:56:41 -0600</tspan>
<tspan x="10" y="1882">- remove shell-functions shNpmDeprecateAlias, shNpmPublishAlias</tspan>
<tspan x="10" y="1898">- merge shell-function shIstanbulCover into shNpmTest</tspan>
<tspan x="10" y="1914">- update shell-function shRunWithScreenshotTxt with fixed \$EXIT_CODE</tspan>
<tspan x="10" y="1930"></tspan>
<tspan x="10" y="1946">2020-12-05 18:46:41 -0600</tspan>
<tspan x="10" y="1962">- cleanup function requireReadme</tspan>
<tspan x="10" y="1978">- replace var isBrowser with isEnvNode and remove unused var isWebWorker</tspan>
<tspan x="10" y="1994">- merge state modeTest into npm_config_mode_test, modeTestCase into npm_config_mode_test_case, t\</tspan><tspan x="10" y="2010">imeoutDefault into npm_config_timeout</tspan>
<tspan x="10" y="2026"></tspan>
<tspan x="10" y="2042">2020-12-05 05:32:27 -0600</tspan>
<tspan x="10" y="2058">- add functions documentQuerySelectorAll</tspan>
<tspan x="10" y="2074">- remove functions middlewareXxx, onParallelXxx, streamCleanup</tspan>
<tspan x="10" y="2090"></tspan>
<tspan x="10" y="2106">2020-12-03 14:48:23 -0600</tspan>
<tspan x="10" y="2122">- migrate from .then() to async/await</tspan>
<tspan x="10" y="2138">- add file .windows_terminals_settings.json</tspan>
<tspan x="10" y="2154"></tspan>
<tspan x="10" y="2170">2020-12-02 19:55:42 -0600</tspan>
<tspan x="10" y="2186">- remove functions streamCleanup</tspan>
<tspan x="10" y="2202">- remove whitespace in shell-functions</tspan>
<tspan x="10" y="2218"></tspan>
<tspan x="10" y="2234">2020-12-02 18:07:50 -0600</tspan>
<tspan x="10" y="2250">[npm publish] #### changelog 2020.12.1</tspan>
<tspan x="10" y="2266">- add persistent repl-history between restart</tspan>
<tspan x="10" y="2282">- rename var command to cmd</tspan>
<tspan x="10" y="2298">- replace functions utility2_onReadyBefore and utility2_onReadyAfter with onReadyIncrement and o\</tspan><tspan x="10" y="2314">nReadyDecrement</tspan>
<tspan x="10" y="2330">- remove jslint-ignore statements from file lib.utility2.js</tspan>
<tspan x="10" y="2346">- move binary-operators from bol to eol - ,$s/\n\(  *\)\(+\|-\|&amp;&amp;\|||\|.==\||\|&amp;\) / \2\r\1/gc -\</tspan><tspan x="10" y="2362"> ^  *[^ *"(){}\[\]?:0-9\/a-z]\{1,3\}</tspan>
<tspan x="10" y="2378">- merge function testReportCreate into testReportMerge</tspan>
<tspan x="10" y="2394">- add custom env-object processEnv</tspan>
<tspan x="10" y="2410">- rename default env-var \$npm_package_name from utility2-lite to utility2</tspan>
<tspan x="10" y="2426">- merge shell-function shDockerCdHostPwd into shDockerSh</tspan>
<tspan x="10" y="2442">- jslint - add prefix "mode" in front of utility2-options</tspan>
<tspan x="10" y="2458">- add function svgBadgeCreate</tspan>
<tspan x="10" y="2474">- merge function testReportCreate into testReportMerge</tspan>
<tspan x="10" y="2490">- remove functions _http.createServer, _http.request,</tspan>
<tspan x="10" y="2506">- remove functions ajaxProgressUpdate,</tspan>
<tspan x="10" y="2522">- remove functions bufferConcat, bufferToUtf8, bufferValidateAndCoerce,</tspan>
<tspan x="10" y="2538">- remove functions coalesce, corsForwardProxyHostIfNeeded,</tspan>
<tspan x="10" y="2554">- remove functions domOnEventAjaxProgressUpdate, domOnEventDelegate</tspan>
<tspan x="10" y="2570">- remove functions fsRmrfSync,</tspan>
<tspan x="10" y="2586">- remove functions middlewareBodyRead, middlewareFowardProxy, middlewareUtility2StateInit,</tspan>
<tspan x="10" y="2602">- remove functions serverLocalUrlTest, stateInit, stringMerge,</tspan>
<tspan x="10" y="2618">- remove functions templateRender, throwError, timeElapsedPoll,</tspan>
<tspan x="10" y="2634">- remove functions urlParse,</tspan>
<tspan x="10" y="2650">- remove env-vars \$npm_config_dir_tmp, \$npm_config_file_tmp, \$npm_config_timeout_exit, \$npm_\</tspan><tspan x="10" y="2666">config_unsafe_perm, \$npm_config_mode_winpty</tspan>
<tspan x="10" y="2682">- rename env-vars \$GITHUB_ORG to \$GITHUB_OWNER, \$GITHUB_REPO to \$GITHUB_FULLNAME, \$NODE_BIN\</tspan><tspan x="10" y="2698">ARY to \$NODE_BIN, \$npm_config_dir_build to \$UTILITY2_DIR_BUILD, \$npm_config_dir_utility2 to \</tspan><tspan x="10" y="2714">\$UTILITY2_DIR_BIN \$npm_config_file_test_report to \$npm_config_mode_test_report</tspan>
<tspan x="10" y="2730">- remove shell-function shXvfbStart</tspan>
<tspan x="10" y="2746">- merge function testRunServer into testRunDefault</tspan>
<tspan x="10" y="2762">- remove function and test for function local.ajax</tspan>
<tspan x="10" y="2778">- remove nodejs.v10 polyfill TextDecoder, TextEncoder</tspan>
<tspan x="10" y="2794">- rename shell-function shReadmeTest to shReadmeEval</tspan>
<tspan x="10" y="2810"></tspan>
<tspan x="10" y="2826">2020-11-12 12:01:16 -0600</tspan>
<tspan x="10" y="2842">[npm publish] #### changelog 2020.11.12</tspan>
<tspan x="10" y="2858">- jslint - update to v2020.11.6</tspan>
<tspan x="10" y="2874">- update function chromeDevtoolsClient with timeout</tspan>
<tspan x="10" y="2890">- remove file lib.puppeteer.js and replace with function chromeDevtoolsClientCreate</tspan>
<tspan x="10" y="2906">- remove dependency on env-var \$CHROME_BIN</tspan>
<tspan x="10" y="2922">- remove functions base64FromBuffer, base64ToUtf8, cryptoAesXxxCbcRawDecrypt, cryptoAesXxxCbcRaw\</tspan><tspan x="10" y="2938">Encrypt, gotoNext, onErrorWithStack</tspan>
<tspan x="10" y="2954">- jslint - fix off-by-one column in autofix-expected_a_before_b</tspan>
<tspan x="10" y="2970">- decouple build from npm-env-variables npm_config_xxx and npm_package_xxx</tspan>
<tspan x="10" y="2986">- update lib.utility2.sh to remove dependency on \$UTILITY2_MACRO_JS</tspan>
<tspan x="10" y="3002"></tspan>
<tspan x="10" y="3018">2020-11-10 00:00:33 -0600</tspan>
<tspan x="10" y="3034">- update jslint to v2020.11.6</tspan>
<tspan x="10" y="3050">- update function chromeDevtoolsClient with timeout</tspan>
<tspan x="10" y="3066">- remove file lib.puppeteer.js and replace with function chromeDevtoolsClientCreate</tspan>
<tspan x="10" y="3082"></tspan>
<tspan x="10" y="3098">2020-11-09 12:46:21 -0600</tspan>
<tspan x="10" y="3114">- remove file lib.puppeteer.js and replace with function cdpClientCreate</tspan>
<tspan x="10" y="3130"></tspan>
<tspan x="10" y="3146">2020-11-08 18:43:03 -0600</tspan>
<tspan x="10" y="3162">- revamp file lib.puppeteer.js part 9 - merge classes Browser, Target into cdpClientCreate and b\</tspan><tspan x="10" y="3178">egin migrating listeners from session to cdpClient</tspan>
<tspan x="10" y="3194"></tspan>
<tspan x="10" y="3210">2020-11-07 23:15:06 -0600</tspan>
<tspan x="10" y="3226">- revamp file lib.puppeteer.js part 8 - inline classes BrowserContext, CDPSession, Connection, T\</tspan><tspan x="10" y="3242">askQueue</tspan>
<tspan x="10" y="3258"></tspan>
<tspan x="10" y="3274">2020-11-07 15:15:39 -0600</tspan>
<tspan x="10" y="3290">- revamp file lib.puppeteer.js part 7 - remove unused code</tspan>
</text>
</svg>
